<?xml version="1.0" encoding="UTF-8"?>
<svg width="180px" height="180px" viewBox="0 0 180 180" version="1.1" xmlns="http://www.w3.org/2000/svg" xmlns:xlink="http://www.w3.org/1999/xlink">
    <title>编组 2</title>
    <defs>
        <linearGradient x1="50%" y1="0%" x2="50%" y2="100%" id="linearGradient-1">
            <stop stop-color="#EEEEEE" stop-opacity="0.1" offset="0%"></stop>
            <stop stop-color="#ECECEC" stop-opacity="0.6" offset="99.9881344%"></stop>
        </linearGradient>
        <circle id="path-2" cx="90" cy="90" r="90"></circle>
        <linearGradient x1="50.0140489%" y1="23.6514039%" x2="50.0140489%" y2="55.8312944%" id="linearGradient-4">
            <stop stop-color="#AEC9FF" offset="0%"></stop>
            <stop stop-color="#AEC9FF" stop-opacity="0" offset="100%"></stop>
        </linearGradient>
        <linearGradient x1="58.6121673%" y1="12.2992009%" x2="58.6121673%" y2="43.547445%" id="linearGradient-5">
            <stop stop-color="#D7E5FF" offset="0%"></stop>
            <stop stop-color="#D7E5FF" stop-opacity="0" offset="100%"></stop>
        </linearGradient>
        <linearGradient x1="50.0140489%" y1="23.6514039%" x2="50.0140489%" y2="55.8312944%" id="linearGradient-6">
            <stop stop-color="#AEC9FF" offset="0%"></stop>
            <stop stop-color="#AEC9FF" stop-opacity="0" offset="100%"></stop>
        </linearGradient>
        <linearGradient x1="58.6121673%" y1="12.2992009%" x2="58.6121673%" y2="43.547445%" id="linearGradient-7">
            <stop stop-color="#D7E5FF" offset="0%"></stop>
            <stop stop-color="#D7E5FF" stop-opacity="0" offset="100%"></stop>
        </linearGradient>
        <linearGradient x1="50.0140489%" y1="23.6514039%" x2="50.0140489%" y2="55.8312944%" id="linearGradient-8">
            <stop stop-color="#AEC9FF" offset="0%"></stop>
            <stop stop-color="#AEC9FF" stop-opacity="0" offset="100%"></stop>
        </linearGradient>
        <linearGradient x1="58.6121673%" y1="12.2992009%" x2="58.6121673%" y2="43.547445%" id="linearGradient-9">
            <stop stop-color="#D7E5FF" offset="0%"></stop>
            <stop stop-color="#D7E5FF" stop-opacity="0" offset="100%"></stop>
        </linearGradient>
    </defs>
    <g id="页面-1" stroke="none" stroke-width="1" fill="none" fill-rule="evenodd">
        <g id="首页切图" transform="translate(-1616.000000, -424.000000)">
            <g id="编组-2" transform="translate(1616.000000, 424.000000)">
                <circle id="椭圆形" fill="url(#linearGradient-1)" cx="90" cy="90" r="90"></circle>
                <g id="编组-28">
                    <mask id="mask-3" fill="white">
                        <use xlink:href="#path-2"></use>
                    </mask>
                    <use id="蒙版" fill="#D8D8D8" opacity="0" xlink:href="#path-2"></use>
                    <g id="编组-27" mask="url(#mask-3)" opacity="0.6">
                        <g transform="translate(102.670000, 30.190000)" id="编组">
                            <g transform="translate(29.509354, 10.730674)">
                                <polygon id="路径" fill="url(#linearGradient-4)" fill-rule="nonzero" opacity="0.600000024" points="20.490646 0 19.6964349 40.1517826 0 49.4175785 0.794211084 9.26579598"></polygon>
                            </g>
                            <g transform="translate(0.000000, 9.265796)">
                                <polygon id="路径" fill="url(#linearGradient-5)" fill-rule="nonzero" points="30.3035651 10.7306742 29.509354 69.8905754 0 59.1599012 0.794211084 0"></polygon>
                            </g>
                            <g transform="translate(0.794211, 0.000000)">
                                <polygon id="路径" fill="#F2F7FF" fill-rule="nonzero" points="49.2057889 10.7306742 29.509354 19.9964702 0 9.26579598 19.714084 0"></polygon>
                            </g>
                        </g>
                    </g>
                    <g id="编组-26" opacity="0.800000012" mask="url(#mask-3)">
                        <g transform="translate(12.670000, 5.744623)">
                            <polygon id="路径" fill="url(#linearGradient-6)" fill-rule="nonzero" points="70 28.1940482 68.8884924 84.4188475 41.3006244 97.3947619 42.412132 41.1699626"></polygon>
                            <polygon id="路径" fill="url(#linearGradient-7)" fill-rule="nonzero" points="42.412132 41.1699626 41.3006244 124.0085 0 108.984414 1.11150758 26.1458769"></polygon>
                            <polygon id="路径" fill="#F2F7FF" fill-rule="nonzero" points="70 28.1940482 42.412132 41.1699626 1.11150758 26.1458769 28.6993756 13.1699626"></polygon>
                            <polygon id="路径" fill="#BAC1DB" fill-rule="nonzero" points="59.4219447 26.9201856 40.2016057 35.9621124 16.9973238 27.5196504 36.2176628 18.4777235"></polygon>
                            <polygon id="路径" fill="#C7CDE6" fill-rule="nonzero" points="59.3470116 17.6159929 59.1596789 24.1601499 39.9393399 33.2020768 40.1266726 26.6579198"></polygon>
                            <polygon id="路径" fill="#E3E7F0" fill-rule="nonzero" points="40.1266726 26.6579198 39.9393399 33.2020768 16.7225691 24.7596147 16.9223907 18.2154577"></polygon>
                            <polygon id="路径" fill="#F4F6F9" fill-rule="nonzero" points="59.3470116 17.6159929 40.1266726 26.6579198 16.9223907 18.2154577 36.1427297 9.17353083"></polygon>
                            <path d="M43.9107939,14.381381 C46.4085638,15.2680893 47.6574487,16.4919965 47.8697591,17.7159037 L36.8795718,17.7159037 L32.5709188,13.4572061 C36.1285376,12.9297865 39.7580981,13.1768693 43.2114184,14.1815594 L43.9107939,14.381381 Z" id="路径" fill="#C9CFE7" fill-rule="nonzero"></path>
                            <path d="M32.4210526,13.9192935 L36.6922391,18.1779911 L30.984835,21.9246459 L30.6601249,21.837224 C30.3104371,21.7373132 29.9732382,21.6249135 29.6485281,21.500025 C25.4023194,19.9514077 24.3782337,17.3787048 27.4754683,15.5178662 C29.0072596,14.6751707 30.6858239,14.1326044 32.4210526,13.9192935 Z" id="路径" fill="#C9CFE7" fill-rule="nonzero"></path>
                            <path d="M48.3318466,18.8274113 C48.3318466,19.8639858 47.5700268,20.9005603 45.8340767,21.7248243 C44.2230825,22.4140914 42.5104318,22.8359265 40.7636039,22.9737092 C37.9595895,23.2771845 35.1248446,23.1211048 32.3710972,22.5116218 L37.3666369,18.602612 L48.3318466,18.8274113 Z" id="路径" fill="#C9CFE7" fill-rule="nonzero"></path>
                            <polygon id="路径" fill="#1C44CB" fill-rule="nonzero" points="51.6164139 5.4893203 51.5539697 7.43758078 38.2158787 7.38762538 38.2783229 5.45185375"></polygon>
                            <polygon id="路径" fill="#1C44CB" fill-rule="nonzero" points="38.2783229 5.45185375 38.2158787 7.38762538 33.0080285 2.2172418 33.0579839 0.293959015"></polygon>
                            <path d="M46.808207,1.44293315 C49.7680642,2.52946303 51.4290812,4.00314724 51.6164139,5.4893203 L38.2783229,5.4893203 L33.0579839,0.318936713 C37.3764688,-0.309380649 41.7793833,-0.00705286417 45.9714541,1.20564501 C46.2586976,1.25560041 46.5459411,1.34302235 46.808207,1.44293315 Z" id="路径" fill="#5F95FE" fill-rule="nonzero"></path>
                            <path d="M26.7386262,12.807786 C26.3015165,12.6828975 25.8893845,12.5455201 25.4897413,12.4081428 C25.0900981,12.2707654 24.8278323,12.1458769 24.5280999,12.0084996 L24.1409456,11.7961892 L23.5789474,11.558901 L23.2042819,11.3465906 L22.7421945,11.0468582 L22.4299732,10.8345478 L22.0553078,10.5223265 L21.7930419,10.3100161 L21.4933095,9.98530603 C21.4240836,9.9118083 21.3614017,9.83241124 21.3059768,9.74801789 C21.222499,9.64155547 21.1473437,9.52882253 21.0811775,9.41081896 L20.956289,9.18601968 C20.8956769,9.0613505 20.8455484,8.93185188 20.8064228,8.79886535 C20.8064228,8.7364211 20.8064228,8.67397686 20.8064228,8.61153261 C20.7886966,8.42044714 20.7886966,8.22813102 20.8064228,8.03704554 L20.8064228,8.03704554 L20.8064228,9.97281718 C20.7817369,10.1676972 20.7817369,10.3649131 20.8064228,10.5597931 L20.8813559,10.7471258 C20.9159891,10.8798695 20.9619501,11.0093962 21.0187333,11.1342802 L21.1436218,11.3590794 C21.2185549,11.4714791 21.2809991,11.5838787 21.3684211,11.6962784 C21.4281667,11.7809072 21.4950157,11.8602904 21.5682426,11.9335665 L21.867975,12.2582766 L22.117752,12.4830759 L22.5049063,12.7952971 C22.6039886,12.8731429 22.7083086,12.9440805 22.8171276,13.0076075 L23.279215,13.3073399 L23.6413916,13.5196504 L24.190901,13.794405 L24.603033,13.9817378 L24.765388,14.0566709 C25.0276539,14.1690705 25.2899197,14.2814702 25.5771632,14.381381 L25.9518287,14.5187583 L26.8010705,14.7810241 L26.9509367,14.7810241 L27.1132917,14.7810241 L27.1882248,14.7810241 L27.1882248,12.8452525 L26.7386262,12.807786 Z" id="路径" fill="#C9CFE7" fill-rule="nonzero"></path>
                            <polygon id="路径" fill="#B6BBCE" fill-rule="nonzero" points="34.044603 8.37424447 33.9821588 10.3100161 27.0508475 14.8184907 27.1132917 12.8827191"></polygon>
                            <path d="M28.8617306,3.20386089 L34.044603,8.37424447 L27.1132917,12.8827191 L26.7386262,12.7828083 C26.3015165,12.6579198 25.8893845,12.5205424 25.4897413,12.3831651 C20.3942908,10.4973488 19.1454059,7.37513654 22.8920607,5.11465482 C24.7440834,4.10798432 26.7693849,3.45971836 28.8617306,3.20386089 L28.8617306,3.20386089 Z" id="路径" fill="#FFFFFF" fill-rule="nonzero"></path>
                            <path d="M49.4183764,13.0825406 L49.4183764,15.0183123 C49.4183764,16.2671972 48.381802,17.4036825 46.3586084,18.3653239 C44.4078929,19.2132577 42.3329817,19.7404201 40.2140946,19.92643 C36.8085549,20.2929876 33.3659605,20.0989198 30.0231936,19.351943 L30.0231936,17.4161713 C33.3659605,18.1631482 36.8085549,18.357216 40.2140946,17.9906584 C42.328956,17.8046223 44.3997524,17.2774339 46.3461195,16.4295522 C48.381802,15.4679108 49.3809099,14.293959 49.4183764,13.0825406 Z" id="路径" fill="#34375F" fill-rule="nonzero"></path>
                            <g id="编组" stroke-width="1" fill="none" fill-rule="evenodd" transform="translate(29.804639, 13.082541)">
                                <path d="M19.6137377,0 L19.6137377,1.93577163 C19.6137377,1.93577163 19.6137377,2.03568243 19.6137377,2.08563782 L19.6137377,0.149866191 L19.6137377,0" id="路径" fill="#34375F" fill-rule="nonzero"></path>
                                <path d="M19.6137377,0.149866191 L19.6137377,2.08563782 C19.6008939,2.22494674 19.5758196,2.36285569 19.5388046,2.49776985 L19.5388046,0.561998216 C19.5798568,0.427419887 19.609108,0.289521339 19.6262266,0.149866191" id="路径" fill="#34375F" fill-rule="nonzero"></path>
                                <path d="M19.5263158,0.561998216 L19.5263158,2.49776985 C19.4874076,2.63486968 19.437283,2.76853515 19.3764496,2.89741302 L19.3764496,0.961641392 C19.437283,0.832763514 19.4874076,0.699098049 19.5263158,0.561998216" id="路径" fill="#1C44CB" fill-rule="nonzero"></path>
                                <path d="M19.3764496,0.974130241 L19.3764496,2.90990187 C19.3140054,3.03479037 19.2390723,3.15967886 19.1641392,3.28456735 L19.1641392,1.34879572 C19.2488918,1.23236477 19.3201202,1.10666768 19.3764496,0.974130241" id="路径" fill="#1C44CB" fill-rule="nonzero"></path>
                                <path d="M19.1641392,1.33630687 L19.1641392,3.2720785 C19.079612,3.39799919 18.987874,3.51892659 18.8893845,3.63425513 L18.8893845,1.6984835 C18.991788,1.58636061 19.0837537,1.46513311 19.1641392,1.33630687" id="路径" fill="#1C44CB" fill-rule="nonzero"></path>
                                <path d="M18.8893845,1.6984835 L18.8893845,3.63425513 C18.7792604,3.76103541 18.6625361,3.88192836 18.5396967,3.99643176 L18.5396967,2.06066012 C18.6656703,1.94938942 18.782601,1.82828258 18.8893845,1.6984835" id="路径" fill="#1C44CB" fill-rule="nonzero"></path>
                                <path d="M18.5396967,2.06066012 L18.5396967,3.99643176 L18.102587,4.37109723 L18.102587,2.4353256 C18.2560809,2.31982408 18.4020785,2.19468333 18.5396967,2.06066012" id="路径" fill="#1C44CB" fill-rule="nonzero"></path>
                                <path d="M18.0651204,2.4353256 L18.0651204,4.37109723 L17.5031222,4.74576271 L17.5031222,2.80999108 C17.7029438,2.68510259 17.8902765,2.56021409 18.0526316,2.4353256" id="路径" fill="#1C44CB" fill-rule="nonzero"></path>
                                <polyline id="路径" fill="#1C44CB" fill-rule="nonzero" points="17.5530776 2.80999108 17.5530776 4.74576271 16.8287244 5.15789474 16.8287244 3.2221231 17.5655665 2.80999108"></polyline>
                                <path d="M16.8162355,3.2221231 L16.8162355,5.15789474 L16.5539697,5.28278323 C16.2917038,5.39518287 16.029438,5.52007136 15.7421945,5.61998216 L15.8046387,3.68421053 C16.0793934,3.58429973 16.3541481,3.45941124 16.6039251,3.3470116 L16.8661909,3.2221231" id="路径" fill="#1C44CB" fill-rule="nonzero"></path>
                                <path d="M15.7546833,3.68421053 L15.6922391,5.61998216 C13.9766554,6.26681176 12.1838954,6.68666188 10.3595004,6.86886708 L9.5352364,6.94380018 L9.5352364,5.00802855 L10.3719893,4.93309545 C12.1960346,4.74879159 13.9885257,4.32900446 15.7047279,3.68421053" id="路径" fill="#1C44CB" fill-rule="nonzero"></path>
                                <path d="M9.58519179,4.98305085 L9.58519179,6.91882248 C9.08563782,6.91882248 8.58608385,6.99375558 8.08652988,7.00624442 L8.08652988,5.07047279 L9.58519179,4.98305085" id="路径" fill="#1C44CB" fill-rule="nonzero"></path>
                                <polyline id="路径" fill="#1C44CB" fill-rule="nonzero" points="8.07404103 5.07047279 8.07404103 7.00624442 6.82515611 7.00624442 6.88760036 5.07047279 8.13648528 5.07047279"></polyline>
                                <polyline id="路径" fill="#1C44CB" fill-rule="nonzero" points="6.82515611 5.08296164 6.82515611 7.01873327 5.73862623 7.01873327 5.73862623 5.08296164 6.82515611 5.08296164"></polyline>
                                <polyline id="路径" fill="#1C44CB" fill-rule="nonzero" points="5.78858162 5.05798394 5.78858162 6.99375558 4.77698483 6.99375558 4.77698483 5.05798394 5.78858162 5.05798394"></polyline>
                                <polyline id="路径" fill="#1C44CB" fill-rule="nonzero" points="4.77698483 5.00802855 4.77698483 6.94380018 3.81534344 6.85637823 3.81534344 4.9206066 4.77698483 5.00802855"></polyline>
                                <polyline id="路径" fill="#1C44CB" fill-rule="nonzero" points="3.81534344 4.9206066 3.81534344 6.85637823 2.8911686 6.75646744 2.8911686 4.82069581 3.81534344 4.9206066"></polyline>
                                <polyline id="路径" fill="#1C44CB" fill-rule="nonzero" points="2.8911686 4.82069581 2.8911686 6.75646744 1.99197145 6.6190901 1.99197145 4.68331847 2.90365745 4.82069581"></polyline>
                                <polyline id="路径" fill="#1C44CB" fill-rule="nonzero" points="1.9794826 4.72078501 1.9794826 6.65655665 1.06779661 6.49420161 1.13024086 4.55842997 2.029438 4.72078501"></polyline>
                                <polyline id="路径" fill="#1C44CB" fill-rule="nonzero" points="1.08028546 4.52096343 1.01784121 6.45673506 0.168599465 6.26940232 0.168599465 4.33363069 1.01784121 4.52096343"></polyline>
                            </g>
                            <path d="M49.4183764,12.9076967 C49.4808207,14.1565817 48.4942016,15.4054666 46.3586084,16.4295522 C44.4122412,17.2774339 42.3414449,17.8046223 40.2265834,17.9906584 C36.8210437,18.357216 33.3784493,18.1631482 30.0356824,17.4161713 L36.0802855,12.6828975 L49.4183764,12.9076967 Z" id="路径" fill="#387BFF" fill-rule="nonzero"></path>
                        </g>
                    </g>
                    <g mask="url(#mask-3)" fill-rule="nonzero">
                        <g transform="translate(20.000000, 42.000000)">
                            <polygon id="路径" fill="url(#linearGradient-8)" points="140 57 137.789829 169.130024 83 195 85.2101714 82.8699755"></polygon>
                            <polygon id="路径" fill="url(#linearGradient-9)" points="82.769962 248 0 218.056842 2.21387833 53 85 82.9431584"></polygon>
                            <polygon id="路径" fill="#F2F7FF" points="140 57.0558595 85.1454822 83 3 52.9441405 57.8705524 27"></polygon>
                            <polygon id="路径" fill="#96B9FF" points="27 51.4074607 52.8004443 4.51347293e-13 114 19.4053775 88.231766 74"></polygon>
                            <path d="M84.7439414,69.3674077 L33.0979905,50.2659525 C32.0620077,49.8827902 31.532792,48.7323458 31.9159543,47.696363 C31.9417938,47.626499 31.9715161,47.5581332 32.0049825,47.491585 L53.6110798,4.52764692 C54.053422,3.6480452 55.0701378,3.22121606 56.0077996,3.52147602 L107.815681,20.1115001 C108.867632,20.448358 109.447329,21.5742098 109.110471,22.6261607 C109.0827,22.7128848 109.049039,22.7976111 109.009722,22.879748 L87.241694,68.3551171 C86.7955851,69.2870788 85.7130151,69.7258233 84.7439414,69.3674077 Z" id="路径" fill="#FFFFFF"></path>
                            <polygon id="路径" fill="#AEC9FF" points="113.6 20 120 58.8235294 88 75"></polygon>
                            <polygon id="路径" fill="#7B8ACF" points="48.2107617 25 50 25.7891783 39.0376763 48 37 47.2742812"></polygon>
                            <polygon id="路径" fill="#387BFF" points="53 53.3718487 66.4509091 24 71 25.6932773 57.8109091 55"></polygon>
                            <polygon id="路径" fill="#AEC9FF" points="45 50.4063745 51.6314286 36 56 37.6573705 49.62 52"></polygon>
                            <ellipse id="椭圆形" fill="#387BFF" cx="83" cy="35" rx="4" ry="3"></ellipse>
                            <ellipse id="椭圆形备份" fill="#387BFF" cx="88" cy="26" rx="4" ry="3"></ellipse>
                            <ellipse id="椭圆形" fill="#AEC9FF" cx="79" cy="42" rx="4" ry="3"></ellipse>
                            <polygon id="路径" fill="#387BFF" points="59 55.2222222 81.75 63 85 56.7777778 62.25 49"></polygon>
                        </g>
                    </g>
                </g>
            </g>
        </g>
    </g>
</svg>