<?xml version="1.0" encoding="UTF-8"?>
<svg width="565px" height="352px" viewBox="0 0 565 352" version="1.1" xmlns="http://www.w3.org/2000/svg" xmlns:xlink="http://www.w3.org/1999/xlink">
    <title>插画</title>
    <g id="页面-1" stroke="none" stroke-width="1" fill="none" fill-rule="evenodd" opacity="0.0799999982">
        <g id="各切图" transform="translate(-352.000000, -233.000000)">
            <g id="编组-25" transform="translate(352.000000, 233.000000)">
                <rect id="矩形" fill="#3A4FEE" x="78.1142803" y="22.5448701" width="274" height="189" rx="22"></rect>
                <circle id="椭圆形" fill="#4674F4" cx="120.61428" cy="49.0448701" r="13.5"></circle>
                <circle id="椭圆形备份-7" fill="#4674F4" cx="120.61428" cy="94.0448701" r="13.5"></circle>
                <circle id="椭圆形备份-8" fill="#4674F4" cx="120.61428" cy="139.04487" r="13.5"></circle>
                <circle id="椭圆形备份-9" fill="#4674F4" cx="120.61428" cy="184.04487" r="13.5"></circle>
                <g id="编组" transform="translate(112.114280, 40.544870)">
                    <rect id="矩形" fill-opacity="0.01" fill="#FFFFFF" fill-rule="nonzero" x="0" y="0" width="16" height="16"></rect>
                    <polyline id="路径" stroke="#FFFFFF" stroke-width="2" stroke-linejoin="round" points="15 4 6.0625 13 2 8.90908462"></polyline>
                </g>
                <g id="编组备份-5" transform="translate(112.114280, 86.544870)">
                    <rect id="矩形" fill-opacity="0.01" fill="#FFFFFF" fill-rule="nonzero" x="0" y="0" width="16" height="16"></rect>
                    <polyline id="路径" stroke="#FFFFFF" stroke-width="2" stroke-linejoin="round" points="15 4 6.0625 13 2 8.90908462"></polyline>
                </g>
                <g id="编组备份-6" transform="translate(112.114280, 130.544870)">
                    <rect id="矩形" fill-opacity="0.01" fill="#FFFFFF" fill-rule="nonzero" x="0" y="0" width="16" height="16"></rect>
                    <polyline id="路径" stroke="#FFFFFF" stroke-width="2" stroke-linejoin="round" points="15 4 6.0625 13 2 8.90908462"></polyline>
                </g>
                <g id="编组备份-7" transform="translate(112.114280, 176.544870)">
                    <rect id="矩形" fill-opacity="0.01" fill="#FFFFFF" fill-rule="nonzero" x="0" y="0" width="16" height="16"></rect>
                    <polyline id="路径" stroke="#FFFFFF" stroke-width="2" stroke-linejoin="round" points="15 4 6.0625 13 2 8.90908462"></polyline>
                </g>
                <rect id="矩形" fill="#FFFFFF" opacity="0.800000012" x="142.11428" y="44.5448701" width="176" height="4"></rect>
                <rect id="矩形备份-22" fill="#FFFFFF" opacity="0.449999988" x="142.11428" y="90.5448701" width="176" height="4"></rect>
                <rect id="矩形备份-23" fill="#FFFFFF" opacity="0.800000012" x="142.11428" y="135.54487" width="176" height="4"></rect>
                <rect id="矩形备份-24" fill="#FFFFFF" opacity="0.449999988" x="142.11428" y="180.54487" width="176" height="4"></rect>
                <path d="M431.616809,52.2905043 C441.10421,68.0632273 450.322667,76.9317487 459.272178,78.8960686 C456.875697,85.8697539 452.099547,86.1574181 446.666209,102.514335 C438.211819,97.679232 419.265663,87.5896257 415.852498,72.0795977 C418.855469,68.5219785 423.189482,66.8202604 426.203694,63.0053897 C427.699072,61.112797 429.503443,57.5411685 431.616809,52.2905043 Z" id="路径-8" fill="#FFFFFF" opacity="0.600000024"></path>
                <path d="M378.962008,11.5205585 C394.434695,13.018808 406.731525,9.17862179 415.852498,0 C418.25525,3.06954773 425.207275,12.4579763 433.937474,16.9992509 C426.414483,24.4335001 423.304157,35.1763777 398.609723,39.4837777 C392.156179,31.6239731 385.606941,22.3029 378.962008,11.5205585 Z" id="路径-9" fill="#FFFFFF" opacity="0.800000012"></path>
                <path d="M22.9493962,98.9163987 C32.872651,95.0945276 42.8105885,85.8593683 52.7632087,71.210921 C46.6931141,65.7583812 37.1492198,65.0488977 30.049308,55.5161272 C17.6820259,67.9730864 15.8712252,73.084178 0,77.216263 C6.49912981,83.7406626 14.1489285,90.9740412 22.9493962,98.9163987 Z" id="路径-10" fill="#FFFFFF" opacity="0.400000006"></path>
                <g id="编组-21" transform="translate(11.120227, 80.781862)">
                    <path d="M9.51003804,156.719665 C8.15650264,171.76038 8.15650264,183.682571 9.51003804,192.486238 C11.5403411,205.691737 12.8091693,234.330188 12.8091693,237.746061 C12.8091693,241.161934 13.010141,254.757416 19.0827166,254.757416 C23.1311004,254.757416 24.6988834,253.304134 23.7860656,250.39757 C20.6504996,246.54698 19.0827166,243.139983 19.0827166,240.176579 C19.0827166,235.731472 21.0960306,206.136721 21.0960306,195.111564 C21.0960306,187.761459 21.0960306,174.964159 21.0960306,156.719665 L9.51003804,156.719665 Z" id="路径-12" fill="#F7A371"></path>
                    <path d="M20.3320095,45.5871862 L27.4826913,59.5652128 L20.3320095,108.08056 L44.8112235,108.08056 L43.6492201,67.2362905 L38.4209397,57.497804 L38.4209397,51.1938447 C36.6338852,52.9013797 34.6841108,52.9013797 32.5716165,51.1938447 C30.4591222,49.4863096 28.7628138,47.6174234 27.4826913,45.5871862 C27.6568792,44.1194845 26.5086459,43.3856337 24.0379914,43.3856337 C21.5673368,43.3856337 20.3320095,44.1194845 20.3320095,45.5871862 Z" id="路径-16" fill="#5032F9"></path>
                    <path d="M38.4209397,156.719665 C46.3694558,182.119666 50.3437138,195.859537 50.3437138,197.93928 C50.3437138,201.058894 65.7921902,232.523699 65.7921902,239.813897 C65.7921902,244.674029 67.7830484,248.978403 71.7647649,252.727018 L76.2231743,252.727018 L76.2231743,248.533827 C75.1624913,246.924992 74.3833021,245.633869 73.8856068,244.660457 C73.1390639,243.200339 73.0955617,242.695046 72.2801714,239.611852 C71.4647811,236.528657 74.170078,247.562891 70.5559263,230.122855 C66.9417745,212.682819 62.6278487,199.29226 62.6278487,195.723843 C62.6278487,193.344899 60.8592515,178.708059 57.322057,151.813324 L38.4209397,156.719665 Z" id="路径-13" fill="#F7A371"></path>
                    <path d="M12.8091693,237.746061 C11.3631962,240.005567 10.6402097,241.655829 10.6402097,242.696846 C10.6402097,244.258372 9.55572996,246.531445 10.6402097,249.629231 C11.7246895,252.727018 15.9069033,260.780637 17.534906,260.780637 C19.1629086,260.780637 23.3912569,262.405467 25.8500495,260.780637 C27.4892445,259.697417 27.4892445,256.314147 25.8500495,250.630827 C22.3053526,245.999649 20.5330042,242.077255 20.5330042,238.863645 C19.6997016,237.822651 19.0616443,237.822651 18.6188322,238.863645 C19.6720162,245.372972 20.9455407,248.961501 22.439406,249.629231 C23.6254178,250.452582 22.8907504,255.183937 19.5785947,253.955477 C16.2664389,252.727018 12.972648,242.920576 14.3866636,239.625848 C14.7872884,238.692372 14.1683801,238.020675 13.9824588,237.746061 C13.8147558,237.498356 13.4236592,237.498356 12.8091693,237.746061 Z" id="路径-14" fill="#052D36"></path>
                    <path d="M65.7921902,239.813897 C65.1841741,243.222129 64.880166,245.965282 64.880166,248.043356 C64.880166,251.160468 69.2586285,255.747217 71.8992859,257.149648 C74.5399432,258.552079 79.2850589,259.187835 80.1293409,257.149648 C80.9736229,255.111461 81.3030094,253.988636 80.1293409,252.727018 C78.9556724,251.4654 78.0880515,249.531533 77.1556129,249.531533 C76.2231743,249.531533 72.1665743,251.585718 71.8992859,250.558626 C71.6319974,249.531533 68.241595,244.79502 68.241595,243.028752 C68.241595,241.851239 67.4251267,240.779621 65.7921902,239.813897 Z" id="路径-15" fill="#052D36"></path>
                    <path d="M12.82852,42.265825 C24.042226,48.7883952 29.649079,56.0729466 29.649079,64.1194792 C29.649079,72.1660117 27.7787164,87.1632179 24.0379914,109.111098 L12.82852,109.111098 C15.1109872,98.8828932 15.681604,90.0436658 14.5403704,82.5934155 C13.3991368,75.1431651 9.89015511,68.9851863 4.01342534,64.1194792 C2.77588687,57.708522 2.77588687,53.282957 4.01342534,50.842784 C5.25096381,48.402611 8.1893287,45.5436246 12.82852,42.265825 Z" id="路径-17" fill="#023E4D"></path>
                    <path d="M33.981843,44.0586381 C36.6398391,50.4270191 37.6825152,54.9306114 37.1098713,57.5694149 C36.5372274,60.2082183 37.1841973,63.1540634 39.0507809,66.40695 C40.3524651,74.1293176 41.0033071,79.6816224 41.0033071,83.0638643 C41.0033071,86.4461063 41.0033071,94.6594513 41.0033071,107.703899 L48.5210464,104.031746 C48.290216,74.4183915 47.7627813,57.5243925 46.9387424,53.3497488 C46.1147034,49.1751051 44.4539537,47.0877832 41.9564931,47.0877832 L33.981843,44.0586381 Z" id="路径-21" fill="#023E4D"></path>
                    <path d="M11.3004393,106.73662 C24.60447,107.433577 37.1337603,106.384261 48.8883102,103.588672 C51.8783248,112.119103 50.2910363,138.901578 59.7568917,153.572051 C45.1163656,159.595256 20.7956636,161.089779 4.01342534,158.784051 C4.01342534,153.240198 4.24177169,139.401466 6.27017372,126.53433 C7.01064404,121.837169 8.68739925,115.237932 11.3004393,106.73662 Z" id="路径-11" fill="#09548E"></path>
                    <path d="M4.01342534,56.1146368 L0.439407573,77.1830848 C-0.629758627,80.324488 0.252196011,81.8951896 3.08527149,81.8951896 C5.91834696,81.8951896 15.5183093,81.8951896 31.8851585,81.8951896 C33.3758782,78.0871197 33.3758782,76.1830848 31.8851585,76.1830848 C30.3944388,76.1830848 22.3620039,76.1830848 7.78785379,76.1830848 L10.6427352,60.7299646 L4.01342534,56.1146368 Z" id="路径-18" fill="#023E4D"></path>
                    <path d="M33.0031983,76.8327944 C37.2563348,75.8178959 40.1426307,75.8178959 41.6620861,76.8327944 C43.1815415,77.8476928 44.6009332,79.5351579 45.9202613,81.8951896 C47.2782361,83.8985684 47.2782361,84.9002579 45.9202613,84.9002579 C43.883299,84.9002579 36.4470516,86.5868682 35.1720379,84.9002579 C34.3220287,83.775851 33.2264023,82.7741615 31.8851585,81.8951896 L33.0031983,76.8327944 Z" id="路径-19" fill="#D79167"></path>
                    <path d="M39.8257552,15.7368416 C33.3407646,19.1268232 28.7193861,20.3781287 25.9616195,19.4907581 C25.5903983,21.7278837 23.8712753,24.1580138 20.8042506,26.7811484 L20.8042506,36.5645417 L23.3952386,43.9378717 C27.3619902,50.8919799 31.3842797,53.9924769 35.4621073,53.2393625 C39.5399348,52.486248 40.0924565,49.3857511 37.1196724,43.9378717 L34.1241556,41.9966855 L31.3534586,41.9966855 L30.2376103,38.827298 L31.3534586,35.164933 C33.4967361,34.1011715 35.4188074,32.9348563 37.1196724,31.6659872 C38.8205374,30.3971182 39.722565,25.087403 39.8257552,15.7368416 Z" id="路径-22" fill="#F4B73F"></path>
                    <polygon id="路径-23" fill="#023E4D" points="46.9387424 51.6444812 59.7568917 75.6884613 62.7416234 85.6498624 48.5210464 85.6498624 44.8112235 62.2902656"></polygon>
                    <polygon id="路径-20" fill="#FFFFFF" points="38.0949062 78.2046692 59.1413889 78.2046692 67.9499941 49.3549208 103.924743 49.3549208 95.1084973 76.8607415 89.877811 83.130297 38.0949062 83.130297"></polygon>
                    <path d="M41.2843313,15.919042 C35.2970243,19.8358289 30.7876366,21.7942224 27.7561685,21.7942224 C26.0285592,25.2428427 25.4451689,42.6459565 23.361396,48.1529358 C21.9722142,51.8242554 18.0316272,53.4678469 11.5396352,53.0837103 C13.610441,41.3651356 13.610441,28.9769128 11.5396352,15.919042 C11.3812368,9.98758923 16.3270172,0 26.4119832,0 C30.4119355,0 33.9451367,0.587541454 36.6950319,4.34386324 C37.9432051,6.04885196 39.4729716,9.90724487 41.2843313,15.919042 Z" id="路径-24" fill="#074A72"></path>
                </g>
                <path d="M406.410707,165.012849 C406.410707,165.012849 413.119715,169.903238 426.53773,179.684015 L426.53773,188.856331 L419.907219,188.856331 L419.907219,197.40983 L419.907219,205.861784 L406.410707,208.319855 L399.275182,205.861784 L399.275182,186.666352 C404.032199,172.230683 406.410707,165.012849 406.410707,165.012849 Z" id="路径-36" fill="#FFFFFF" opacity="0.800000012"></path>
                <path d="M378.038054,138.381189 C381.993006,138.380674 387.325266,138.380416 394.034833,138.380416 C394.034833,148.656089 389.756288,160.615253 389.756288,168.889702 C389.756288,174.406002 389.756288,188.957724 389.756288,212.54487 L368.55882,212.54487 L368.55882,175.463029 C369.157474,168.43454 370.526345,161.351465 372.665433,154.213806 C374.804522,147.076148 376.595395,141.798608 378.038054,138.381189 Z" id="路径-25" fill="#FFFFFF"></path>
                <path d="M378.038054,138.381189 C372.986602,151.531315 369.826858,173.585875 368.55882,204.54487 C368.55882,206.221942 367.230077,206.221942 364.572591,204.54487 C364.403372,186.487009 364.696605,173.841561 365.452288,166.608527 C365.535792,162.909977 364.137659,159.528197 361.78054,161.666806 C360.209127,163.092545 355.48546,167.127146 347.609539,173.770609 C344.005935,177.577247 340.118195,177.577247 335.946319,173.770609 C334.341486,172.276479 327.684679,163.7218 315.975896,148.106573 L322.307525,142.05952 C329.818962,152.387991 335.030673,158.237989 337.94266,159.609516 C342.310639,161.666806 344.943749,161.506463 346.767358,159.609516 C348.590967,157.712569 362.272582,143.448387 363.839201,143.448387 C364.547669,143.448387 365.848908,142.154105 370.060504,140.315749 C371.391888,139.734602 374.051071,139.089748 378.038054,138.381189 Z" id="路径-27" fill="#023E4D"></path>
                <polygon id="路径-28" fill="#FFFFFF" points="243.4915 151.232477 308.4404 151.232477 308.4404 197.476661 243.4915 197.476661"></polygon>
                <polygon id="路径-29" fill="#FFFFFF" points="266.189741 189.795408 281.572342 189.795408 277.447912 201.876535 301.486983 201.876535 301.486983 207.802674 260.639227 207.802674"></polygon>
                <rect id="矩形" fill="#074336" x="224.11428" y="204.54487" width="232" height="8"></rect>
                <polygon id="矩形" fill="#074336" points="237.11428 315.54487 243.11428 315.54487 243.11428 335.54487 237.11428 335.54487"></polygon>
                <polygon id="矩形" fill="#074336" points="436.11428 315.54487 442.11428 315.54487 442.11428 335.54487 436.11428 335.54487"></polygon>
                <path d="M383.364171,139.16352 C377.569472,152.423033 374.672123,173.905089 374.672123,203.609687 C377.569472,203.609687 379.505971,203.609687 380.481617,203.609687 C377.335676,193.765786 379.582929,172.28373 387.223375,139.16352 C387.223375,138.223062 385.936974,138.223062 383.364171,139.16352 Z" id="路径-30" fill="#ACA5A5"></path>
                <path d="M373.766695,110.409349 L372.367868,121.054936 L370.69065,122.834041 L369.27919,124.797828 C369.665301,125.738807 370.135788,126.209296 370.69065,126.209296 C371.245512,126.209296 372.27086,127.778584 373.766695,130.917161 L373.766695,134.044628 C374.359359,135.284457 375.493616,135.904372 377.169466,135.904372 C378.845316,135.904372 380.044698,136.947442 380.76761,139.033581 C387.512525,140.163351 391.743945,140.163351 393.461872,139.033581 C394.171722,136.290839 392.752021,133.815176 393.461872,132.366169 C393.935105,131.400164 393.935105,129.347873 393.461872,126.209296 L390.877107,126.209296 L390.877107,122.834041 C392.600283,122.219045 393.461872,121.017431 393.461872,119.229199 C393.461872,116.546851 388.585242,116.235853 388.585242,117.732526 C388.585242,118.730308 387.358263,119.837778 384.904303,121.054936 L384.904303,115.93374 L384.904303,110.409349 L379.361464,106.653267 L373.766695,106.653267 L373.766695,110.409349 Z" id="路径-31" fill="#F1C37C"></path>
                <path d="M369.27919,107.902149 C375.750617,109.096235 380.58615,111.033153 383.785787,113.712902 C383.673065,117.675151 381.832738,121.586967 383.785787,121.586967 C385.738835,121.586967 390.219398,119.42281 390.219398,117.899007 C390.219398,116.883138 391.300222,117.326535 393.461872,119.229199 L390.219398,121.586967 C390.219398,122.759375 390.219398,123.674427 390.219398,124.332124 C390.219398,124.989821 391.300222,125.615545 393.461872,126.209296 C395.802377,127.460744 396.97263,127.460744 396.97263,126.209296 C396.97263,124.957848 397.840173,123.417072 399.575257,121.586967 C403.414231,112.865895 403.414231,107.304903 399.575257,104.903991 C395.797251,103.049783 393.816797,103.674186 393.816797,103.361985 C393.816797,103.049783 391.964349,101.188826 391.964349,99.395121 C391.964349,98.1993173 389.234476,96.7676338 383.774731,95.1000705 C376.61445,94.2908575 372.408456,95.722541 371.156749,99.395121 C369.905043,103.067701 369.27919,105.903377 369.27919,107.902149 Z" id="路径-32" fill="#074A72"></path>
                <path d="M310.288682,146.733328 C312.274646,148.174021 314.11485,148.894367 315.809294,148.894367 C317.503738,148.894367 319.403722,147.430702 321.509246,144.503371 C321.854023,139.337291 321.394776,136.754251 320.131504,136.754251 C318.868232,136.754251 317.427496,136.048537 315.809294,134.637109 C314.288516,133.39864 312.988219,132.779406 311.908404,132.779406 C310.288682,132.779406 309.188622,135.860495 309.188622,136.754251 C309.188622,137.19184 308.793072,139.519918 309.188622,142.902958 C309.283986,143.718583 309.650673,144.995373 310.288682,146.733328 Z" id="路径-33" fill="#F1C37C"></path>
                <path d="M333.905273,309.086771 C333.46979,312.745487 330.563567,314.574846 325.186603,314.574846 C319.809639,314.574846 317.087956,316.499561 317.021554,320.348991 C317.800849,321.398829 319.032725,321.923747 320.71718,321.923747 C322.401636,321.923747 330.820812,321.398829 345.974709,320.348991 C347.42246,320.106352 348.146335,319.238403 348.146335,317.745145 C348.146335,316.251888 348.146335,313.365763 348.146335,309.086771 L333.905273,309.086771 Z" id="路径-34" fill="#074A72"></path>
                <path d="M379.39314,309.086771 C373.136597,316.838121 368.576999,320.713797 365.714344,320.713797 C361.420363,320.713797 360.491679,324.763731 361.936878,325.899249 C362.900344,326.65626 365.704009,326.65626 370.347871,325.899249 L388.672765,321.923747 C390.976477,321.409786 392.128333,320.590152 392.128333,319.464847 C392.128333,318.339542 391.350866,317.019679 389.795932,315.505259 C389.047154,311.226267 388.672765,309.086771 388.672765,309.086771 C388.672765,309.086771 385.579557,309.086771 379.39314,309.086771 Z" id="路径-35" fill="#074A72"></path>
                <rect id="矩形" fill="#CEEBFF" x="230.11428" y="212.54487" width="217" height="103"></rect>
                <path d="M456.424683,150.702877 L454.662368,158.336305 C461.016995,159.531157 464.808455,160.128583 466.03675,160.128583 C467.265044,160.128583 469.471506,159.531157 472.656137,158.336305 L475.906977,153.791799 C476.296638,151.940901 475.606848,150.70454 473.837606,150.082717 C471.183743,149.149983 469.142634,148.243828 468.349807,148.243828 C467.556979,148.243828 460.588472,148.531668 460.588472,148.531668 C460.588472,148.531668 459.200543,149.255404 456.424683,150.702877 Z" id="路径-37" fill="#F1C37C" transform="translate(465.337420, 154.186206) rotate(-13.000000) translate(-465.337420, -154.186206) "></path>
                <path d="M394.034833,138.381189 C390.112825,143.481156 388.151821,152.101957 388.151821,164.24359 C388.151821,176.385224 388.151821,189.818984 388.151821,204.54487 L409.97739,204.54487 C410.778027,190.647164 410.778027,180.455858 409.97739,173.970951 C409.699527,169.852086 414.231866,169.075004 416.176907,170.269017 C417.473602,171.065025 420.90776,175.208266 426.479384,182.698738 C429.910015,185.117129 432.45478,185.117129 434.113676,182.698738 C435.772573,180.280347 444.08143,172.784508 459.040246,160.211222 C456.340477,156.444013 455.365156,153.876837 456.11428,152.509693 C456.863405,151.142549 450.304577,157.062324 436.437797,170.269017 C433.869743,172.798578 431.567994,172.798578 429.53255,170.269017 C427.497106,167.739456 424.370153,162.410791 420.151693,154.283023 C417.685905,150.324568 414.294471,147.580231 409.97739,146.050011 C405.75823,143.962171 400.444044,141.405897 394.034833,138.381189 Z" id="路径-26" fill="#023E4D"></path>
                <g id="编组-22" transform="translate(481.653937, 211.487033)">
                    <path d="M14.4976013,124.270003 C19.7616561,126.984616 22.3936835,126.913894 22.3936835,124.057838 C22.3936835,119.773753 31.5345377,80.3321032 31.5345377,75.9681953 C31.5345377,71.6042875 40.7807583,21.0590671 43.7870166,16.5981896 C46.7932748,12.1373122 48.5624368,43.8273147 52.4407674,64.2709957 C55.0263211,77.9001165 58.1264119,98.8491163 61.74104,127.117995 C65.3093051,129.016657 68.1617626,129.016657 70.2984126,127.117995 C73.5033875,124.270003 70.2984126,75.392023 70.2984126,65.4749303 C70.2984126,55.5578375 72.7875479,9.59726798 70.2984126,6.04752124 C68.638989,3.68102342 67.9252592,1.8551246 68.1572233,0.569824787 C39.889719,2.55675809 24.8811977,2.55675809 23.1316595,0.569824787 C21.3821213,-1.41710852 19.8495357,1.79216593 18.5339027,10.1976481 C14.6954875,32.2733476 13.3500537,49.5329777 14.4976013,61.9765383 C15.6451489,74.4200989 15.6451489,95.1845871 14.4976013,124.270003 Z" id="路径-38" fill="#06518A"></path>
                    <path d="M14.1014294,123.61789 C17.5318953,124.988667 20.0017165,125.445592 21.510893,124.988667 C23.0200695,124.531741 22.594234,127.020171 20.2333864,132.453958 C12.8730047,137.500704 6.59868754,139.143082 1.41043487,137.381093 C-1.0028633,135.178789 0.148798416,134.478032 1.41043487,132.409003 C2.67207132,130.339973 9.98829087,131.387843 11.4529288,129.964917 C12.4293542,129.0163 13.3121877,126.900624 14.1014294,123.61789 Z" id="路径-39" fill="#093347"></path>
                    <path d="M61.74104,127.117995 C66.4963328,127.117995 69.3487904,127.117995 70.2984126,127.117995 C71.2480348,127.117995 71.7228459,128.525321 71.7228459,131.339973 L70.2984126,134.918367 C65.1090109,139.522094 58.6299784,140.987527 50.8613151,139.314668 C48.2544245,137.81991 48.9565364,133.918367 51.8633225,133.918367 C53.263433,133.918367 53.4298186,134.054568 57.9843281,131.339973 C59.150509,130.644902 60.4027463,129.237576 61.74104,127.117995 Z" id="路径-40" fill="#093347"></path>
                </g>
                <path d="M500.74165,219.31566 C519.976882,222.892832 537.297775,222.892832 552.704331,219.31566 C552.542273,215.196756 552.542273,205.288015 552.704331,189.589437 C558.189717,189.63499 561.283708,189.344108 561.986306,188.71679 C563.040202,187.775814 564.712386,187.818759 564.712386,184.516887 C564.712386,181.215015 562.798236,160.637948 557.751283,147.313916 C555.458445,142.138465 552.562532,139.221305 549.063544,138.562437 L535.135777,133.642681 C533.221295,133.007065 531.744318,133.406178 530.704846,134.84002 C529.665374,136.273862 527.58613,137.514667 524.467115,138.562437 C522.615499,139.29077 520.826735,138.652894 519.100824,136.648809 C517.374914,134.644724 516.189698,134.041794 515.545178,134.84002 C510.593265,135.913529 507.508987,137.154335 506.292343,138.562437 C505.075699,139.97054 500.317695,137.25434 492.018332,130.413838 C490.396728,128.540583 490.396728,126.891745 492.018332,125.467326 C493.639937,124.042906 499.511863,117.300023 509.634113,105.238676 L506.732284,101.389223 L477.675488,123.812146 C476.023158,126.060712 476.023158,128.261276 477.675488,130.413838 C479.327817,132.5664 487.016538,139.238095 500.74165,150.428923 C503.883278,154.449593 504.926631,159.318245 503.871711,165.03488 C502.816791,170.751514 501.773437,188.845108 500.74165,219.31566 Z" id="路径-41" fill="#4735EA"></path>
                <g id="编组-23" transform="translate(481.693787, 159.634159)">
                    <path d="M29.4698778,0.0885207801 C32.7350846,-0.579868059 35.0156203,2.5368174 36.311485,9.43857716 C37.6073496,16.3403369 39.9508855,26.8369867 43.3420926,40.9285265 L21.1565925,40.9285265 L10.2595164,10.9995343 L18.7632344,0.0885207801 L29.4698778,0.0885207801 Z" id="路径-43" fill="#DEE5DD"></path>
                    <path d="M0.155276844,10.9995343 L26.0161086,10.9995343 C25.6910576,3.7255253 26.842314,0.0885207801 29.4698778,0.0885207801 C32.0974417,0.0885207801 22.8853603,0.0885207801 1.83363372,0.0885207801 C0.921764927,2.3795837 0.362312635,4.19808596 0.155276844,5.54402756 C-0.0517589479,6.88996916 -0.0517589479,8.70847142 0.155276844,10.9995343 Z" id="路径-42" fill="#FFFFFF"></path>
                </g>
                <path d="M511.677587,178.401526 C513.166765,177.730536 515.397877,177.730536 518.370925,178.401526 C520.177642,178.034259 520.629321,177.333291 519.725963,176.29862 C518.701757,175.925587 518.319759,175.713292 518.579967,175.661734 L517.927615,173.759203 L525.978002,175.661734 C529.194131,176.342482 530.802196,177.54975 530.802196,179.283536 C530.802196,181.884215 531.035399,185.641985 529.904763,186.824017 C528.774126,188.00605 513.945009,187.11292 512.504655,186.277395 C511.064302,185.441871 509.443525,184.070047 509.443525,182.424015 C509.443525,180.777983 509.443821,179.408012 511.677587,178.401526 Z" id="路径-44" fill="#FDC06E"></path>
                <g id="编组-24" transform="translate(506.101379, 91.632933)">
                    <path d="M0.0278992872,10.0570068 C-0.171316909,12.422831 0.696351483,13.6057431 2.63090446,13.6057431 C5.53273393,13.6057431 8.20157801,7.12198061 10.5590398,7.12198061 C12.130681,7.12198061 13.7509515,6.01610139 15.4198511,3.80434295 L17.7332868,1.26811432 C18.2358791,-0.422704772 15.8444634,-0.422704772 10.5590398,1.26811432 C5.27361625,2.95893341 1.76323607,5.88856424 0.0278992872,10.0570068 Z" id="路径-47" fill="#FBB98C"></path>
                    <path d="M6.09898379,12.1284595 L4.69017956,25.8687153 L1.78202751,27.0437061 L0.630904461,29.1015795 L3.36494413,30.4757146 L6.09898379,32.7591884 C7.64296134,36.9165087 9.50322799,38.9951689 11.6797837,38.9951689 C12.6198898,38.9893447 13.0043842,41.4408691 12.8332668,46.3497419 C16.2637239,48.3427428 18.5951369,48.840993 19.827506,47.8444926 C21.0598752,46.8479921 22.9555143,45.0220114 25.5144236,42.3665504 L24.6880088,32.020615 L26.2087977,27.0437061 L25.5144236,20.5909466 L25.5144236,17.7937067 L22.651647,16.9133467 L20.4813797,19.7050539 L19.827506,23.7763693 L18.9442482,25.8687153 L18.9442482,20.5909466 L18.0788495,17.7937067 C17.944178,16.4406201 17.6505325,15.7640769 17.197913,15.7640769 C16.7452936,15.7640769 15.9351672,15.4538193 14.767534,14.833304 C13.0028392,14.1648959 11.755363,13.8306919 11.0251054,13.8306919 C9.92971888,13.8306919 8.62428532,12.9396187 8.62428532,12.9396187 C8.62428532,12.9396187 7.78251814,12.6692323 6.09898379,12.1284595 Z" id="路径-45" fill="#F1C37C"></path>
                    <path d="M3.53273393,17.0974078 C7.28904755,17.6489663 10.2013601,17.9247455 12.2696717,17.9247455 C15.372139,17.9247455 17.3216362,20.155512 17.3216362,21.5699779 C17.3216362,22.9844437 16.3376996,27.0083652 17.3216362,27.7886567 C18.3055729,28.5689481 20.5254693,26.5284526 20.5254693,25.3825205 C20.5254693,24.2365885 22.4828136,19.4943458 24.3458056,20.5321618 C25.5878004,21.2240392 25.5878004,23.0918536 24.3458056,26.1356052 C23.7566788,28.7403287 23.7566788,30.5705542 24.3458056,31.6262815 C24.9349324,32.6820088 25.5559298,33.4590774 26.2087977,33.9574873 C27.1207685,34.5845867 27.9439701,34.3528273 28.6784025,33.262209 C27.9621522,31.6756554 27.6045646,31.2610045 27.6045646,30.310203 C27.6045646,29.3594015 30.1251624,24.992721 30.1251624,24.309998 C30.1251624,23.6272749 34.4477555,19.8277302 33.5301017,17.9247455 C32.612448,16.0217609 33.0109993,12.3300566 28.6784025,10.4876156 C24.3458056,8.6451746 24.3458056,4.93877575 21.4815333,3.82958475 C18.617261,2.72039374 13.41192,1.48289903 9.33535428,4.93877575 C5.25878861,8.39465246 3.53273393,10.099951 3.53273393,11.3558424 C3.53273393,12.1931033 3.53273393,14.1069584 3.53273393,17.0974078 Z" id="路径-46" fill="#074A72"></path>
                </g>
            </g>
        </g>
    </g>
</svg>