<?xml version="1.0" encoding="UTF-8"?>
<svg width="180px" height="180px" viewBox="0 0 180 180" version="1.1" xmlns="http://www.w3.org/2000/svg" xmlns:xlink="http://www.w3.org/1999/xlink">
    <title>编组 3</title>
    <defs>
        <linearGradient x1="50%" y1="0%" x2="50%" y2="100%" id="linearGradient-1">
            <stop stop-color="#EEEEEE" stop-opacity="0.1" offset="0%"></stop>
            <stop stop-color="#ECECEC" stop-opacity="0.6" offset="99.9881344%"></stop>
        </linearGradient>
        <circle id="path-2" cx="90" cy="90" r="90"></circle>
        <linearGradient x1="50.0140489%" y1="23.6514039%" x2="50.0140489%" y2="55.8312944%" id="linearGradient-4">
            <stop stop-color="#AEC9FF" offset="0%"></stop>
            <stop stop-color="#AEC9FF" stop-opacity="0" offset="100%"></stop>
        </linearGradient>
        <linearGradient x1="58.6121673%" y1="12.2992009%" x2="58.6121673%" y2="43.547445%" id="linearGradient-5">
            <stop stop-color="#D7E5FF" offset="0%"></stop>
            <stop stop-color="#D7E5FF" stop-opacity="0" offset="100%"></stop>
        </linearGradient>
        <linearGradient x1="0.045143943%" y1="49.9333552%" x2="100.121991%" y2="49.9333552%" id="linearGradient-6">
            <stop stop-color="#387BFF" offset="0%"></stop>
            <stop stop-color="#7385CE" offset="100%"></stop>
        </linearGradient>
        <linearGradient x1="0.045143943%" y1="49.9333552%" x2="100.121991%" y2="49.9333552%" id="linearGradient-7">
            <stop stop-color="#387BFF" offset="0%"></stop>
            <stop stop-color="#7385CE" offset="100%"></stop>
        </linearGradient>
        <linearGradient x1="0.045143943%" y1="49.9333552%" x2="100.121991%" y2="49.9333552%" id="linearGradient-8">
            <stop stop-color="#387BFF" offset="0%"></stop>
            <stop stop-color="#7385CE" offset="100%"></stop>
        </linearGradient>
        <linearGradient x1="40.2799676%" y1="28.6469345%" x2="54.303686%" y2="59.4608879%" id="linearGradient-9">
            <stop stop-color="#BCC1D7" offset="0%"></stop>
            <stop stop-color="#C9CFE7" stop-opacity="0" offset="100%"></stop>
        </linearGradient>
        <linearGradient x1="58.6121673%" y1="12.2992009%" x2="58.6121673%" y2="72.4381273%" id="linearGradient-10">
            <stop stop-color="#D7E5FF" offset="0%"></stop>
            <stop stop-color="#D7E5FF" stop-opacity="0" offset="100%"></stop>
        </linearGradient>
        <linearGradient x1="50.0140489%" y1="23.6514039%" x2="50.0140489%" y2="55.8312944%" id="linearGradient-11">
            <stop stop-color="#AEC9FF" offset="0%"></stop>
            <stop stop-color="#AEC9FF" stop-opacity="0" offset="100%"></stop>
        </linearGradient>
        <linearGradient x1="58.6121673%" y1="12.2992009%" x2="58.6121673%" y2="43.547445%" id="linearGradient-12">
            <stop stop-color="#D7E5FF" offset="0%"></stop>
            <stop stop-color="#D7E5FF" stop-opacity="0" offset="100%"></stop>
        </linearGradient>
    </defs>
    <g id="页面-1" stroke="none" stroke-width="1" fill="none" fill-rule="evenodd">
        <g id="首页切图" transform="translate(-1616.000000, -692.000000)">
            <g id="编组-3" transform="translate(1616.000000, 692.000000)">
                <circle id="椭圆形" fill="url(#linearGradient-1)" cx="90" cy="90" r="90"></circle>
                <g id="编组-4">
                    <mask id="mask-3" fill="white">
                        <use xlink:href="#path-2"></use>
                    </mask>
                    <use id="蒙版" fill="#D8D8D8" opacity="0" xlink:href="#path-2"></use>
                    <g id="编组-20" mask="url(#mask-3)" fill-rule="nonzero">
                        <g transform="translate(108.200000, 24.620000)">
                            <polygon id="路径" fill="url(#linearGradient-4)" points="55 30.0881612 54.1309824 74.256927 32.4433249 84.4584383 33.324937 40.2770781"></polygon>
                            <polygon id="路径" fill="url(#linearGradient-5)" points="33.324937 40.2770781 32.4433249 105.365239 0 93.5642317 0.869017632 28.4760705"></polygon>
                            <polygon id="路径" fill="#F2F7FF" points="55 30.0881612 33.324937 40.2770781 0.869017632 28.4760705 22.5440806 18.2745592"></polygon>
                            <polygon id="路径" fill="#9CBDFF" points="47.720403 27.884131 30.3148615 36.070529 9.30730479 28.4130982 26.7128463 20.2392947"></polygon>
                            <polygon id="路径" fill="#AEC9FF" points="47.6574307 19.4584383 47.4811083 25.3778338 30.0755668 33.5642317 30.2518892 27.6448363"></polygon>
                            <polygon id="路径" fill="#D7E5FF" points="30.2518892 27.6448363 30.0755668 33.5642317 9.06801008 25.9193955 9.24433249 20"></polygon>
                            <polygon id="路径" fill="#F4F6F9" points="47.6574307 19.4584383 30.2518892 27.6448363 9.24433249 20 26.6498741 11.813602"></polygon>
                            <path d="M24.9370277,6.98992443 L25.0377834,6.98992443 L25.138539,6.98992443 L25.2267003,6.98992443 L25.2267003,6.98992443 C25.0855301,6.9539565 24.9499356,6.8988712 24.8236776,6.82619647 L24.8236776,6.82619647 L24.9370277,6.98992443 Z" id="路径" fill="#34375F"></path>
                            <path d="M24.6725441,6.77581864 L24.7732997,6.83879093 L24.861461,6.83879093 C24.7266554,6.77396151 24.599857,6.69365586 24.4836272,6.59949622 L24.559194,6.66246851 L24.6725441,6.77581864 Z" id="路径" fill="#34375F"></path>
                            <path d="M25.4534005,7.15365239 L25.7052897,7.15365239 C25.5603586,7.15215983 25.4163029,7.13097516 25.2770781,7.0906801 L25.3526448,7.0906801 L25.4534005,7.15365239 Z" id="路径" fill="#34375F"></path>
                            <path d="M24.3198992,2.27959698 L24.3198992,2.27959698 C24.1580521,2.35666539 24.0093063,2.45866257 23.8790932,2.58186398 C24.0093063,2.45866257 24.1580521,2.35666539 24.3198992,2.27959698 L24.3198992,2.27959698 Z" id="路径" fill="#34375F"></path>
                            <path d="M24.3324937,6.5743073 C24.3686367,6.61460282 24.4111918,6.64864691 24.4584383,6.67506297 L24.4584383,6.67506297 C24.3405704,6.58417962 24.2309897,6.4830282 24.1309824,6.37279597 C24.1309824,6.37279597 24.1309824,6.37279597 24.1939547,6.43576826 C24.2321183,6.48932282 24.2789391,6.5361437 24.3324937,6.5743073 L24.3324937,6.5743073 Z" id="路径" fill="#34375F"></path>
                            <path d="M23.6775819,5.70528967 L23.790932,5.90680101 L23.6775819,5.70528967 Z" id="路径" fill="#34375F"></path>
                            <path d="M23.488665,5.35264484 C23.486269,5.38198307 23.486269,5.41146781 23.488665,5.44080605 C23.4295596,5.324363 23.3831143,5.20191624 23.3501259,5.07556675 L23.3501259,5.07556675 L23.488665,5.35264484 Z" id="路径" fill="#34375F"></path>
                            <path d="M23.4256927,3.26196474 L23.4256927,3.37531486 L23.4256927,3.48866499 C23.4256927,3.48866499 23.4256927,3.56423174 23.4256927,3.60201511 C23.4256927,3.63979849 23.4256927,3.60201511 23.4256927,3.70277078 C23.4256927,3.80352645 23.4256927,3.70277078 23.4256927,3.79093199 C23.4601535,3.56539341 23.523653,3.34526187 23.6146096,3.13602015 L23.6146096,3.13602015 L23.4256927,3.26196474 Z" id="路径" fill="#34375F"></path>
                            <path d="M23.2745592,3.92947103 C23.2745592,3.92947103 23.2745592,3.92947103 23.2745592,4.0302267 L23.2745592,4.25692695 C23.2690112,4.29872518 23.2690112,4.34107331 23.2745592,4.38287154 L23.2745592,4.5465995 C23.2365609,4.29614337 23.2365609,4.04138811 23.2745592,3.79093199 L23.2745592,3.79093199 C23.265399,3.83665741 23.265399,3.88374561 23.2745592,3.92947103 L23.2745592,3.92947103 Z" id="路径" fill="#34375F"></path>
                            <path d="M23.6775819,2.88413098 L23.6020151,3.02267003 L23.5390428,3.13602015 C23.6259859,2.96237857 23.736148,2.80137237 23.8664987,2.65743073 L23.8035264,2.73299748 L23.6775819,2.88413098 Z" id="路径" fill="#34375F"></path>
                            <path d="M24.1057935,6.34760705 C24.0474743,6.28356649 23.9928116,6.21628932 23.9420655,6.14609572 L24.0428212,6.2720403 L24.1057935,6.34760705 Z" id="路径" fill="#34375F"></path>
                            <path d="M22.418136,3.31234257 L22.4937028,3.23677582 L22.418136,3.31234257 Z" id="路径" fill="#34375F"></path>
                            <path d="M23.324937,4.79848866 L23.324937,4.94962217 C23.3193001,4.98297086 23.3193001,5.01702914 23.324937,5.05037783 C23.2732929,4.89087914 23.239501,4.72614382 23.2241814,4.55919395 C23.2241814,4.55919395 23.2241814,4.55919395 23.2241814,4.65994962 C23.2241814,4.76070529 23.3123426,4.74811083 23.324937,4.79848866 Z" id="路径" fill="#34375F"></path>
                            <path d="M22.4937028,6.77581864 C22.4348727,6.69904923 22.3802177,6.61916877 22.3299748,6.53652393 C22.3802177,6.61916877 22.4348727,6.69904923 22.4937028,6.77581864 L22.4937028,6.77581864 Z" id="路径" fill="#34375F"></path>
                            <polygon id="路径" fill="#34375F" points="25.0125945 7.69521411 25.0125945 7.69521411 25.0125945 7.69521411 26.4735516 7.04030227"></polygon>
                            <path d="M22.2166247,6.36020151 C22.1655481,6.27469331 22.1192961,6.18639409 22.0780856,6.09571788 C22.1192961,6.18639409 22.1655481,6.27469331 22.2166247,6.36020151 L22.2166247,6.36020151 Z" id="路径" fill="#34375F"></path>
                            <path d="M25.8942065,7.17884131 L26.0957179,7.17884131 C25.9662784,7.19797445 25.8347292,7.19797445 25.7052897,7.17884131 L25.8942065,7.17884131 L25.8942065,7.17884131 Z" id="路径" fill="#34375F"></path>
                            <path d="M26.3476071,7.0906801 L26.4735516,7.0906801 C26.3606309,7.14158094 26.2423372,7.17960388 26.1209068,7.20403023 L26.1209068,7.20403023 L26.3476071,7.0906801 Z" id="路径" fill="#34375F"></path>
                            <path d="M23.8035264,2.65743073 L23.8790932,2.58186398 C24.0093063,2.45866257 24.1580521,2.35666539 24.3198992,2.27959698 L22.8715365,2.93450882 C22.7071217,3.00704562 22.5576417,3.10954625 22.4307305,3.23677582 L22.3551637,3.31234257 L22.3551637,3.31234257 L23.7783375,2.68261965 L23.8035264,2.65743073 Z" id="路径" fill="#34375F"></path>
                            <polygon id="路径" fill="#34375F" points="23.7405542 2.73299748 22.3173804 3.3627204 22.2166247 3.52644836 23.6775819 2.88413098"></polygon>
                            <path d="M23.6775819,2.88413098 L22.279597,3.52644836 C22.239034,3.56712651 22.2050427,3.61386449 22.1788413,3.66498741 L23.6020151,3.02267003 L23.6775819,2.88413098 Z" id="路径" fill="#34375F"></path>
                            <path d="M23.4760705,3.13602015 L23.4760705,3.13602015 L23.5390428,3.02267003 L22.115869,3.66498741 C22.0835359,3.70482776 22.0540747,3.74691527 22.0277078,3.79093199 L22.0277078,3.79093199 L23.4760705,3.13602015 L23.4760705,3.13602015 Z" id="路径" fill="#34375F"></path>
                            <polygon id="路径" fill="#34375F" points="23.4760705 3.14861461 22.0277078 3.80352645 22.0277078 3.90428212 23.4634761 3.26196474"></polygon>
                            <path d="M23.4256927,3.26196474 L21.9899244,3.90428212 C21.9899244,3.90428212 21.9899244,3.97984887 21.9899244,4.01763224 L23.4130982,3.37531486 L23.4256927,3.26196474 Z" id="路径" fill="#34375F"></path>
                            <polygon id="路径" fill="#34375F" points="23.3879093 3.37531486 21.9647355 4.01763224 21.9647355 4.13098237 23.3879093 3.48866499"></polygon>
                            <path d="M23.3501259,3.48866499 L21.9269521,4.13098237 C21.9210535,4.16853552 21.9210535,4.20677934 21.9269521,4.24433249 L23.3501259,3.60201511 C23.3501259,3.60201511 23.3375315,3.52644836 23.3501259,3.48866499 Z" id="路径" fill="#34375F"></path>
                            <path d="M23.324937,3.60201511 L21.9017632,4.24433249 C21.8999534,4.2820942 21.8999534,4.31992092 21.9017632,4.35768262 L23.3375315,3.70277078 C23.3375315,3.70277078 23.3123426,3.62720403 23.324937,3.60201511 Z" id="路径" fill="#34375F"></path>
                            <path d="M23.2871537,3.80352645 L23.2871537,3.80352645 C23.2871537,3.80352645 23.2871537,3.80352645 23.2871537,3.71536524 L21.8513854,4.37027708 C21.8513854,4.37027708 21.8513854,4.37027708 21.8513854,4.45843829 L21.8513854,4.45843829 L21.8513854,4.45843829 L23.2997481,3.80352645 L23.2871537,3.80352645 Z" id="路径" fill="#34375F"></path>
                            <path d="M23.2871537,3.81612091 L21.8387909,4.47103275 C21.8387909,4.47103275 21.8387909,4.53400504 21.8387909,4.57178841 L23.2745592,3.92947103 C23.2725794,3.89125458 23.2768331,3.85297066 23.2871537,3.81612091 L23.2871537,3.81612091 Z" id="路径" fill="#34375F"></path>
                            <path d="M23.2745592,3.92947103 L21.8387909,4.57178841 C21.8323346,4.60506335 21.8323346,4.63926914 21.8387909,4.67254408 L23.2619647,4.0302267 C23.2619647,4.0302267 23.2745592,3.95465995 23.2745592,3.92947103 Z" id="路径" fill="#34375F"></path>
                            <polygon id="路径" fill="#34375F" points="23.2619647 4.0302267 21.8387909 4.67254408 21.8387909 4.78589421 23.2619647 4.14357683"></polygon>
                            <polygon id="路径" fill="#34375F" points="23.2619647 4.14357683 21.8387909 4.78589421 21.8387909 4.91183879 23.2619647 4.26952141"></polygon>
                            <path d="M23.2619647,4.25692695 L21.8387909,4.89924433 C21.8323932,4.94098211 21.8323932,4.98345114 21.8387909,5.02518892 L23.2745592,4.38287154 C23.2648036,4.34163275 23.2605685,4.29928093 23.2619647,4.25692695 L23.2619647,4.25692695 Z" id="路径" fill="#34375F"></path>
                            <path d="M23.2745592,4.39546599 L21.8387909,5.03778338 C21.832568,5.08375341 21.832568,5.13035238 21.8387909,5.17632242 L23.2745592,4.52141058 L23.2745592,4.39546599 Z" id="路径" fill="#34375F"></path>
                            <path d="M23.2871537,4.55919395 L23.2871537,4.55919395 L21.8513854,5.21410579 C21.8513854,5.21410579 21.8513854,5.21410579 21.8513854,5.21410579 C21.8513854,5.21410579 21.8513854,5.27707809 21.8513854,5.302267 L23.2997481,4.65994962 C23.2997481,4.65994962 23.2871537,4.59697733 23.2871537,4.55919395 Z" id="路径" fill="#34375F"></path>
                            <path d="M23.2997481,4.65994962 L21.8513854,5.302267 C21.8574527,5.35246216 21.8574527,5.40320535 21.8513854,5.4534005 L23.2997481,4.79848866 C23.2997481,4.79848866 23.3123426,4.71032746 23.2997481,4.65994962 Z" id="路径" fill="#34375F"></path>
                            <polygon id="路径" fill="#34375F" points="23.324937 4.79848866 21.8765743 5.4534005 21.8765743 5.60453401 23.324937 4.94962217"></polygon>
                            <path d="M23.4005038,5.07556675 L23.4005038,5.07556675 C23.3948668,5.04221806 23.3948668,5.00815978 23.4005038,4.97481108 L21.9521411,5.62972292 L21.9521411,5.73047859 L21.9521411,5.73047859 L21.9521411,5.73047859 L23.4005038,5.08816121 L23.4005038,5.07556675 Z" id="路径" fill="#34375F"></path>
                            <polygon id="路径" fill="#34375F" points="23.4130982 5.13853904 21.9647355 5.78085642 22.0403023 6.00755668 23.488665 5.35264484"></polygon>
                            <path d="M23.9420655,6.14609572 C23.9420655,6.07052897 23.8287154,5.99496222 23.7783375,5.90680101 L23.6649874,5.70528967 C23.6179106,5.61964634 23.575858,5.53133584 23.5390428,5.44080605 C23.5366469,5.41146781 23.5366469,5.38198307 23.5390428,5.35264484 L22.0906801,6.00755668 L22.0906801,6.09571788 C22.1318905,6.18639409 22.1781425,6.27469331 22.2292191,6.36020151 C22.2621691,6.42997855 22.3000484,6.49731946 22.3425693,6.56171285 C22.3928121,6.64435769 22.4474672,6.72423815 22.5062972,6.80100756 L22.6070529,6.92695214 L24.0554156,6.2720403 L23.9420655,6.14609572 Z" id="路径" fill="#34375F"></path>
                            <path d="M24.1435768,6.38539043 L24.1435768,6.38539043 L24.1435768,6.30982368 L22.6952141,6.96473552 L22.7581864,7.04030227 L22.7581864,7.04030227 L22.7581864,7.04030227 L24.2065491,6.38539043 C24.2065491,6.38539043 24.1687657,6.41057935 24.1435768,6.38539043 Z" id="路径" fill="#34375F"></path>
                            <path d="M24.2065491,6.44836272 L22.7581864,7.10327456 L22.8967254,7.22921914 L24.3324937,6.5743073 C24.2844003,6.53891826 24.2419382,6.49645616 24.2065491,6.44836272 L24.2065491,6.44836272 Z" id="路径" fill="#34375F"></path>
                            <path d="M24.3324937,6.5743073 L22.8967254,7.22921914 C22.9334092,7.25955589 22.9671444,7.29329104 22.9974811,7.32997481 L24.4584383,6.67506297 C24.4111918,6.64864691 24.3686367,6.61460282 24.3324937,6.5743073 L24.3324937,6.5743073 Z" id="路径" fill="#34375F"></path>
                            <polygon id="路径" fill="#34375F" points="24.4836272 6.70025189 24.4836272 6.70025189 23.02267 7.35516373 23.02267 7.35516373 23.1234257 7.41813602 24.559194 6.77581864"></polygon>
                            <polygon id="路径" fill="#34375F" points="24.559194 6.77581864 23.1234257 7.41813602 23.2241814 7.49370277 24.6725441 6.83879093"></polygon>
                            <polygon id="路径" fill="#34375F" points="24.6725441 6.77581864 23.2241814 7.43073048 23.324937 7.43073048 24.7732997 6.77581864"></polygon>
                            <polygon id="路径" fill="#34375F" points="24.861461 6.9395466 24.861461 6.9395466 24.7732997 6.9395466 23.324937 7.59445844 23.4005038 7.59445844 23.4005038 7.59445844 24.8488665 6.95214106"></polygon>
                            <path d="M24.9370277,6.95214106 L23.488665,7.59445844 C23.5219075,7.60124403 23.5561782,7.60124403 23.5894207,7.59445844 L25.0251889,6.9395466 L24.9370277,6.95214106 Z" id="路径" fill="#34375F"></path>
                            <polygon id="路径" fill="#34375F" points="24.9370277 6.98992443 23.5012594 7.64483627 23.6020151 7.64483627 25.0377834 7.00251889"></polygon>
                            <polygon id="路径" fill="#34375F" points="25.0629723 7.04030227 23.627204 7.68261965 23.7153652 7.68261965 25.163728 7.04030227"></polygon>
                            <polygon id="路径" fill="#34375F" points="25.163728 7.07808564 23.7153652 7.72040302 23.8035264 7.72040302 25.2518892 7.06549118"></polygon>
                            <polygon id="路径" fill="#34375F" points="25.2770781 7.11586902 25.2770781 7.11586902 23.8287154 7.77078086 23.8287154 7.77078086 23.9168766 7.77078086 25.3526448 7.11586902"></polygon>
                            <polygon id="路径" fill="#34375F" points="25.3526448 7.12846348 23.9168766 7.78337531 24.0176322 7.78337531 25.4534005 7.14105793"></polygon>
                            <polygon id="路径" fill="#34375F" points="25.4534005 7.15365239 24.0176322 7.79596977 24.1183879 7.79596977 25.5541562 7.15365239"></polygon>
                            <polygon id="路径" fill="#34375F" points="25.5541562 7.16624685 24.1183879 7.80856423 24.2191436 7.80856423 25.6675063 7.15365239"></polygon>
                            <polygon id="路径" fill="#34375F" points="25.6675063 7.17884131 24.2191436 7.83375315 24.2191436 7.83375315"></polygon>
                            <polygon id="路径" fill="#34375F" points="25.7052897 7.17884131 24.256927 7.83375315 24.3450882 7.83375315 25.7808564 7.19143577"></polygon>
                            <polygon id="路径" fill="#34375F" points="25.7808564 7.19143577 24.3450882 7.83375315 24.4710327 7.83375315 25.8942065 7.19143577"></polygon>
                            <polygon id="路径" fill="#34375F" points="25.8942065 7.17884131 24.4710327 7.82115869 24.5969773 7.82115869 26.0327456 7.17884131"></polygon>
                            <polygon id="路径" fill="#34375F" points="26.1209068 7.15365239 26.0327456 7.15365239 24.5969773 7.79596977 24.6725441 7.79596977 24.7732997 7.79596977 26.1712846 7.16624685"></polygon>
                            <polygon id="路径" fill="#34375F" points="26.1964736 7.14105793 24.7984887 7.77078086 25 7.77078086 26.372796 7.15365239"></polygon>
                            <polygon id="路径" fill="#34375F" points="26.4735516 7.04030227 26.3476071 7.04030227 24.9748111 7.65743073 24.9748111 7.65743073"></polygon>
                            <path d="M26.9269521,3.5138539 C26.8639798,3.40050378 26.813602,3.28715365 26.7380353,3.17380353 C26.813602,3.28715365 26.8639798,3.40050378 26.9269521,3.5138539 Z" id="路径" fill="#34375F"></path>
                            <path d="M25.1889169,1.5743073 L25.0251889,1.47355164 L24.9370277,1.38539043 C25.1660052,1.50445192 25.3813739,1.64803104 25.5793451,1.81360202 L25.3778338,1.73803526 L25.1889169,1.5743073 Z" id="路径" fill="#34375F"></path>
                            <path d="M24.6851385,1.29722922 L24.5088161,1.22166247 L24.3450882,1.15869018 L24.1813602,1.15869018 L24.1813602,1.15869018 C24.4275282,1.22571862 24.6644329,1.32301877 24.8866499,1.44836272 L24.8866499,1.44836272 L24.6851385,1.29722922 Z" id="路径" fill="#34375F"></path>
                            <path d="M23.8413098,1.02015113 L23.6523929,1.02015113 L23.4760705,1.02015113 L23.4005038,1.02015113 C23.6525498,1.03029569 23.9022649,1.07262029 24.1435768,1.14609572 L24.0050378,1.14609572 L23.8413098,1.02015113 Z" id="路径" fill="#34375F"></path>
                            <path d="M23.0730479,0.9697733 L22.8463476,0.9697733 L22.7455919,0.9697733 C22.9631556,0.944348524 23.1829401,0.944348524 23.4005038,0.9697733 L23.0730479,0.9697733 Z" id="路径" fill="#34375F"></path>
                            <path d="M25.768262,2.01511335 L25.5667506,1.83879093 L25.5667506,1.83879093 C25.7676847,1.9972446 25.9570805,2.16980525 26.1335013,2.35516373 L26.0327456,2.2418136 L25.768262,2.01511335 Z" id="路径" fill="#34375F"></path>
                            <path d="M22.2921914,1.1209068 L22.1032746,1.19647355 C22.2938359,1.11704044 22.4922478,1.05793902 22.6952141,1.02015113 L22.5944584,1.02015113 L22.2921914,1.1209068 Z" id="路径" fill="#34375F"></path>
                            <path d="M27.8967254,2.10327456 L28.186398,2.51889169 L27.8967254,2.10327456 Z" id="路径" fill="#34375F"></path>
                            <path d="M28.3879093,2.85894207 L28.6146096,3.32493703 L28.3879093,2.85894207 Z" id="路径" fill="#34375F"></path>
                            <path d="M27.5566751,1.73803526 L27.6196474,1.81360202 L27.5566751,1.73803526 Z" id="路径" fill="#34375F"></path>
                            <path d="M28.4382872,7.74559194 L28.4382872,7.80856423 L28.4382872,7.74559194 Z" id="路径" fill="#34375F"></path>
                            <path d="M27.3425693,7.72040302 L27.418136,7.51889169 C27.418136,7.51889169 27.418136,7.4559194 27.418136,7.41813602 C27.3684122,7.59482224 27.305256,7.76744932 27.2292191,7.93450882 L27.2292191,7.93450882 L27.3425693,7.72040302 Z" id="路径" fill="#34375F"></path>
                            <path d="M27.5188917,7.14105793 L27.5188917,6.96473552 C27.5188917,6.96473552 27.5188917,6.86397985 27.5188917,6.82619647 C27.5188917,7.01511335 27.4433249,7.20403023 27.3929471,7.3929471 L27.3929471,7.32997481 C27.4416632,7.27176205 27.4838938,7.2084162 27.5188917,7.14105793 L27.5188917,7.14105793 Z" id="路径" fill="#34375F"></path>
                            <path d="M26.2972292,9.11838791 L26.4357683,9.00503778 L26.2972292,9.11838791 Z" id="路径" fill="#34375F"></path>
                            <path d="M27.6196474,5.79345088 C27.6196474,5.71788413 27.6196474,5.64231738 27.6196474,5.57934509 L27.6196474,5.5163728 C27.637933,5.73849921 27.637933,5.96175268 27.6196474,6.18387909 C27.626366,6.12950988 27.626366,6.07452034 27.6196474,6.02015113 L27.6196474,5.79345088 Z" id="路径" fill="#34375F"></path>
                            <path d="M27.6070529,6.58690176 C27.6070529,6.58690176 27.6070529,6.46095718 27.6070529,6.39798489 C27.6070529,6.33501259 27.6070529,6.2720403 27.6070529,6.20906801 L27.6070529,6.20906801 C27.6070529,6.4231738 27.6070529,6.62468514 27.6070529,6.82619647 L27.6070529,6.82619647 C27.6169318,6.74673744 27.6169318,6.66636079 27.6070529,6.58690176 L27.6070529,6.58690176 Z" id="路径" fill="#34375F"></path>
                            <path d="M26.9395466,8.46347607 L26.7380353,8.71536524 L26.8010076,8.63979849 C26.853936,8.58665528 26.9004347,8.52747514 26.9395466,8.46347607 L26.9395466,8.46347607 Z" id="路径" fill="#34375F"></path>
                            <path d="M27.1536524,8.13602015 L27.2418136,7.94710327 C27.1680935,8.10370438 27.0839412,8.2551786 26.9899244,8.40050378 L26.9899244,8.40050378 L27.1536524,8.13602015 Z" id="路径" fill="#34375F"></path>
                            <path d="M27.7455919,8.46347607 C27.5902756,8.58737298 27.4212416,8.69301921 27.2418136,8.77833753 C27.4212416,8.69301921 27.5902756,8.58737298 27.7455919,8.46347607 L27.7455919,8.46347607 Z" id="路径" fill="#34375F"></path>
                            <path d="M27.5188917,5.08816121 C27.503879,4.99868289 27.4828403,4.91032062 27.4559194,4.82367758 C27.4630445,4.76933415 27.4630445,4.71429306 27.4559194,4.65994962 C27.5459637,4.93377405 27.6051054,5.21680897 27.6322418,5.50377834 C27.6322418,5.50377834 27.6322418,5.39042821 27.6322418,5.34005038 C27.5880213,5.25913504 27.5501249,5.17492087 27.5188917,5.08816121 L27.5188917,5.08816121 Z" id="路径" fill="#34375F"></path>
                            <polygon id="路径" fill="#34375F" points="25.7934509 9.42065491 27.2418136 8.77833753 25.7934509 9.42065491"></polygon>
                            <path d="M28.186398,8.03526448 C28.095062,8.14119429 27.9938498,8.23818928 27.884131,8.32493703 C27.9938498,8.23818928 28.095062,8.14119429 28.186398,8.03526448 L28.186398,8.03526448 Z" id="路径" fill="#34375F"></path>
                            <path d="M27.2292191,4.13098237 C27.2093092,4.07412143 27.184005,4.01929568 27.1536524,3.96725441 C27.2443774,4.17283183 27.3242521,4.38302848 27.3929471,4.59697733 C27.3929471,4.59697733 27.3929471,4.59697733 27.3929471,4.50881612 C27.3929471,4.42065491 27.279597,4.25692695 27.2292191,4.13098237 Z" id="路径" fill="#34375F"></path>
                            <path d="M26.1964736,2.41813602 C26.2972292,2.51889169 26.372796,2.64483627 26.4735516,2.7581864 L26.3098237,2.53148615 L26.1964736,2.41813602 Z" id="路径" fill="#34375F"></path>
                            <polygon id="路径" fill="#1C44CB" points="23.6775819 0.478589421 23.6146096 0.478589421 22.1662469 1.1209068 22.3551637 1.04534005"></polygon>
                            <path d="M22.5944584,1.03274559 L23.9672544,0.478589421 C23.8708895,0.46996441 23.7739468,0.46996441 23.6775819,0.478589421 L22.3551637,1.07052897 L22.5944584,1.03274559 Z" id="路径" fill="#1C44CB"></path>
                            <polygon id="路径" fill="#1C44CB" points="24.2695214 0.352644836 24.1435768 0.352644836 23.9672544 0.352644836 22.5944584 0.957178841 22.7455919 0.957178841 22.8463476 0.957178841"></polygon>
                            <polygon id="路径" fill="#1C44CB" points="23.0730479 0.9697733 24.4710327 0.340050378 24.2695214 0.340050378 22.8463476 0.9697733"></polygon>
                            <polygon id="路径" fill="#1C44CB" points="23.2745592 0.957178841 24.697733 0.327455919 24.4710327 0.327455919 23.0730479 0.957178841"></polygon>
                            <polygon id="路径" fill="#1C44CB" points="24.697733 0.327455919 23.2745592 0.957178841 23.4005038 0.957178841 24.8488665 0.302267003"></polygon>
                            <polygon id="路径" fill="#1C44CB" points="24.9370277 0.327455919 24.8740554 0.327455919 23.4256927 0.982367758 23.5012594 0.982367758"></polygon>
                            <polygon id="路径" fill="#1C44CB" points="23.6775819 0.994962217 25.1007557 0.352644836 24.9370277 0.352644836 23.5012594 0.994962217"></polygon>
                            <polygon id="路径" fill="#1C44CB" points="23.8413098 1.02015113 25.2518892 0.377833753 25.0755668 0.377833753 23.6775819 0.994962217"></polygon>
                            <polygon id="路径" fill="#1C44CB" points="24.0050378 1.05793451 25.440806 0.478589421 25.2518892 0.478589421 23.8413098 1.1209068"></polygon>
                            <polygon id="路径" fill="#1C44CB" points="25.6297229 0.478589421 25.6297229 0.478589421 25.4785894 0.478589421 24.0428212 1.1209068 24.1813602 1.1209068 24.1813602 1.1209068"></polygon>
                            <polygon id="路径" fill="#1C44CB" points="24.3450882 1.15869018 25.7808564 0.478589421 25.6297229 0.478589421 24.1813602 1.13350126"></polygon>
                            <polygon id="路径" fill="#1C44CB" points="24.5088161 1.22166247 25.9445844 0.579345088 25.7808564 0.478589421 24.3450882 1.1209068"></polygon>
                            <polygon id="路径" fill="#1C44CB" points="24.6851385 1.29722922 26.1083123 0.64231738 25.9445844 0.579345088 24.5088161 1.22166247"></polygon>
                            <polygon id="路径" fill="#1C44CB" points="24.8488665 1.37279597 26.2972292 0.717884131 26.1083123 0.64231738 24.6851385 1.29722922"></polygon>
                            <polygon id="路径" fill="#1C44CB" points="26.4609572 0.818639798 26.3224181 0.730478589 26.3224181 0.730478589 24.8740554 1.38539043 24.8740554 1.38539043 25.0251889 1.47355164"></polygon>
                            <polygon id="路径" fill="#1C44CB" points="25.1889169 1.5743073 26.6246851 0.931989924 26.4609572 0.818639798 25.0251889 1.47355164"></polygon>
                            <polygon id="路径" fill="#1C44CB" points="25.3778338 1.73803526 26.813602 1.08312343 26.6246851 0.9697733 25.1889169 1.61209068"></polygon>
                            <polygon id="路径" fill="#1C44CB" points="27.0151134 1.19647355 27.0151134 1.19647355 27.0151134 1.19647355 26.8513854 1.08312343 25.3778338 1.73803526 25.5163728 1.85138539 25.5163728 1.85138539"></polygon>
                            <polygon id="路径" fill="#1C44CB" points="25.768262 2.01511335 27.2040302 1.37279597 27.0151134 1.19647355 25.5667506 1.83879093"></polygon>
                            <path d="M26.0075567,2.22921914 L27.4559194,1.58690176 C27.3822094,1.50904185 27.3021703,1.4374279 27.2166247,1.37279597 L25.7808564,2.01511335 L26.0075567,2.22921914 Z" id="路径" fill="#1C44CB"></path>
                            <polygon id="路径" fill="#1C44CB" points="27.720403 1.88916877 27.6196474 1.76322418 27.5566751 1.73803526 27.4559194 1.58690176 26.0201511 2.22921914 26.1209068 2.34256927 26.1838791 2.41813602 26.2972292 2.53148615"></polygon>
                            <path d="M28.7153652,3.47607053 C28.7153652,3.47607053 28.7153652,3.37531486 28.7153652,3.32493703 L28.488665,2.85894207 C28.4256927,2.74559194 28.3627204,2.63224181 28.2871537,2.51889169 L27.9974811,2.10327456 C27.9345088,2.10327456 27.884131,1.96473552 27.8211587,1.88916877 L26.3853904,2.53148615 L26.5491184,2.7581864 C26.652797,2.89162378 26.7494844,3.03034919 26.8387909,3.17380353 C26.9143577,3.28715365 26.9647355,3.40050378 27.0277078,3.5138539 C27.1133391,3.65974211 27.1890763,3.81121643 27.2544081,3.96725441 C27.2847607,4.01929568 27.3100648,4.07412143 27.3299748,4.13098237 L28.7153652,3.47607053 Z" id="路径" fill="#1C44CB"></path>
                            <path d="M27.3677582,4.50881612 L28.8161209,3.85390428 L28.6649874,3.47607053 L27.2292191,4.13098237 C27.279597,4.25692695 27.3299748,4.38287154 27.3677582,4.50881612 Z" id="路径" fill="#1C44CB"></path>
                            <path d="M28.8916877,4.16876574 C28.8916877,4.16876574 28.8916877,4.05541562 28.8916877,4.00503778 L28.8916877,4.00503778 C28.8916877,4.00503778 28.8916877,4.00503778 28.8916877,3.90428212 L27.4433249,4.55919395 C27.4433249,4.55919395 27.4433249,4.62216625 27.4433249,4.64735516 L27.4433249,4.71032746 C27.45045,4.76467089 27.45045,4.81971198 27.4433249,4.87405542 L28.8916877,4.16876574 Z" id="路径" fill="#1C44CB"></path>
                            <path d="M27.5188917,5.08816121 L28.9546599,4.44584383 C28.9546599,4.35768262 28.9546599,4.25692695 28.8916877,4.16876574 L27.4559194,4.82367758 C27.4828403,4.91032062 27.503879,4.99868289 27.5188917,5.08816121 L27.5188917,5.08816121 Z" id="路径" fill="#1C44CB"></path>
                            <path d="M27.5692695,5.34005038 L29.0050378,4.68513854 C29.0050378,4.60957179 29.0050378,4.52141058 29.0050378,4.44584383 L27.5692695,5.08816121 C27.5633493,5.17201991 27.5633493,5.25619168 27.5692695,5.34005038 L27.5692695,5.34005038 Z" id="路径" fill="#1C44CB"></path>
                            <path d="M29.0428212,4.92443325 L29.0428212,4.92443325 L29.0428212,4.74811083 L27.6070529,5.40302267 C27.6070529,5.40302267 27.6070529,5.5163728 27.6070529,5.56675063 L27.6070529,5.64231738 L29.0428212,4.92443325 Z" id="路径" fill="#1C44CB"></path>
                            <path d="M27.6196474,5.79345088 L29.0554156,5.13853904 C29.0614929,5.06729982 29.0614929,4.99567247 29.0554156,4.92443325 L27.6070529,5.57934509 C27.6070529,5.57934509 27.6070529,5.71788413 27.6196474,5.79345088 Z" id="路径" fill="#1C44CB"></path>
                            <path d="M27.6196474,6.00755668 L29.0680101,5.35264484 C29.0680101,5.35264484 29.0680101,5.21410579 29.0680101,5.13853904 L27.6322418,5.79345088 L27.6196474,6.00755668 Z" id="路径" fill="#1C44CB"></path>
                            <path d="M29.0806045,5.5163728 L29.0806045,5.5163728 L29.0806045,5.5163728 C29.0806045,5.5163728 29.0806045,5.40302267 29.0806045,5.35264484 L27.6322418,6.00755668 C27.6389605,6.06192589 27.6389605,6.11691542 27.6322418,6.17128463 L27.6322418,6.17128463 L27.6322418,6.17128463 L29.0806045,5.5163728 Z" id="路径" fill="#1C44CB"></path>
                            <path d="M27.6196474,6.39798489 L29.0680101,5.74307305 C29.0680101,5.74307305 29.0680101,5.61712846 29.0680101,5.55415617 L27.6196474,6.20906801 C27.6196474,6.20906801 27.6196474,6.33501259 27.6196474,6.39798489 Z" id="路径" fill="#1C44CB"></path>
                            <path d="M27.6070529,6.58690176 L29.0428212,5.94458438 C29.0428212,5.88161209 29.0428212,5.8186398 29.0428212,5.74307305 L27.5944584,6.39798489 C27.6196474,6.46095718 27.6070529,6.52392947 27.6070529,6.58690176 Z" id="路径" fill="#1C44CB"></path>
                            <path d="M27.581864,6.77581864 L29.0302267,6.1209068 C29.0360355,6.06227619 29.0360355,6.003215 29.0302267,5.94458438 L27.5944584,6.58690176 C27.5964323,6.65013411 27.5922141,6.71340789 27.581864,6.77581864 Z" id="路径" fill="#1C44CB"></path>
                            <path d="M29.0050378,6.30982368 C28.9991067,6.26383443 28.9991067,6.21727388 29.0050378,6.17128463 L29.0050378,6.17128463 L27.581864,6.77581864 L27.581864,6.77581864 C27.581864,6.77581864 27.581864,6.86397985 27.581864,6.91435768 L29.0050378,6.30982368 Z" id="路径" fill="#1C44CB"></path>
                            <path d="M27.5188917,7.14105793 L28.9546599,6.49874055 C28.9546599,6.49874055 28.9546599,6.37279597 28.9546599,6.30982368 L27.5062972,6.96473552 L27.5188917,7.14105793 Z" id="路径" fill="#1C44CB"></path>
                            <path d="M27.4559194,7.32997481 L28.9042821,6.68765743 L28.9042821,6.49874055 L27.4685139,7.14105793 C27.470039,7.20428155 27.4658235,7.26751314 27.4559194,7.32997481 L27.4559194,7.32997481 Z" id="路径" fill="#1C44CB"></path>
                            <path d="M28.8539043,6.87657431 L28.8539043,6.76322418 L28.8539043,6.76322418 L27.4055416,7.40554156 L27.4055416,7.49370277 C27.4055416,7.49370277 27.4055416,7.55667506 27.4055416,7.59445844 L28.8539043,6.87657431 Z" id="路径" fill="#1C44CB"></path>
                            <path d="M27.3425693,7.72040302 L28.7783375,7.06549118 C28.8089012,7.00480416 28.8341835,6.94159849 28.8539043,6.87657431 L27.418136,7.51889169 L27.3425693,7.72040302 Z" id="路径" fill="#1C44CB"></path>
                            <path d="M27.2544081,7.92191436 L28.7027708,7.26700252 C28.7336631,7.20211119 28.7589443,7.13469468 28.7783375,7.06549118 L27.3425693,7.72040302 L27.2544081,7.92191436 Z" id="路径" fill="#1C44CB"></path>
                            <path d="M28.5894207,7.48110831 C28.6304508,7.42239857 28.6642785,7.35897174 28.6901763,7.29219144 L28.6901763,7.29219144 L27.2418136,7.94710327 L27.2418136,7.94710327 L27.1536524,8.13602015 L28.5894207,7.48110831 Z" id="路径" fill="#1C44CB"></path>
                            <polygon id="路径" fill="#1C44CB" points="27.0151134 8.3627204 28.4508816 7.72040302 28.5894207 7.48110831 27.1536524 8.13602015"></polygon>
                            <path d="M28.2367758,8.03526448 C28.2909386,7.97541574 28.3414097,7.91232688 28.3879093,7.84634761 L28.3879093,7.78337531 L28.3879093,7.78337531 L26.9521411,8.4256927 L26.9521411,8.4256927 L26.9521411,8.48866499 C26.9130292,8.55266406 26.8665305,8.6118442 26.813602,8.66498741 L28.2367758,8.03526448 Z" id="路径" fill="#1C44CB"></path>
                            <path d="M28.2367758,8.03526448 L26.8010076,8.67758186 L26.7380353,8.75314861 L26.4357683,9.04282116 L26.2972292,9.15617128 C26.1427294,9.27777939 25.973458,9.37934223 25.7934509,9.45843829 L27.2418136,8.81612091 C27.4212416,8.73080258 27.5902756,8.62515635 27.7455919,8.50125945 C27.7971405,8.47056013 27.8438319,8.43235808 27.884131,8.38790932 C27.9938498,8.30116157 28.095062,8.20416659 28.186398,8.09823678 L28.2367758,8.03526448 Z" id="路径" fill="#1C44CB"></path>
                            <path d="M23.4005038,0.9697733 C25.6689098,1.35281985 27.3896769,3.22389498 27.581864,5.5163728 C27.884131,7.92191436 26.4987406,9.77329975 24.4836272,9.67254408 C22.2194411,9.29071995 20.4999135,7.4261719 20.302267,5.13853904 C20,2.72040302 21.3979849,0.856423174 23.4005038,0.9697733 Z M24.256927,7.83375315 C25.4282116,7.89672544 26.2342569,6.81360202 26.0579345,5.42821159 C25.9534678,4.11241271 24.9762795,3.03181824 23.6775819,2.79596977 C22.5188917,2.73299748 21.7128463,3.81612091 21.8891688,5.21410579 C21.9943858,6.54059612 22.9934564,7.62292257 24.3073048,7.83375315" id="形状" fill="url(#linearGradient-6)"></path>
                            <path d="M19.8236776,18.4634761 L22.1536524,17.1410579 L22.3677582,17.0780856 L22.581864,17.0780856 L35.9319899,22.2544081 C36.1205887,22.3516096 36.2390991,22.5460128 36.2390991,22.7581864 C36.2390991,22.97036 36.1205887,23.1647632 35.9319899,23.2619647 L34.3702771,24.1435768 C33.8809091,24.4187174 33.2940596,24.4603052 32.7707809,24.256927 L19.8110831,19.2191436 C19.6858147,19.1330485 19.6120224,18.9899101 19.6144923,18.8379294 C19.6170885,18.6859487 19.6956097,18.5453489 19.8236776,18.4634761 L19.8236776,18.4634761 Z" id="路径" fill="#C9CFE7"></path>
                            <path d="M35.4030227,20.465995 L35.5037783,20.5289673 L35.604534,20.5289673 C35.4697284,20.4641378 35.34293,20.3838322 35.2267003,20.2896725 L35.302267,20.3526448 L35.4030227,20.465995 Z" id="路径" fill="#1C44CB"></path>
                            <path d="M33.0982368,16.9647355 L33.1738035,16.8891688 L33.0982368,16.9647355 Z" id="路径" fill="#1C44CB"></path>
                            <path d="M35.7052897,20.6297229 L35.8060453,20.6297229 L35.906801,20.6297229 L35.9949622,20.6297229 L35.9949622,20.6297229 C35.8512277,20.5840385 35.7120823,20.5250071 35.5793451,20.4534005 L35.5793451,20.4534005 L35.7052897,20.6297229 Z" id="路径" fill="#1C44CB"></path>
                            <path d="M36.1964736,20.7934509 L36.4483627,20.7934509 C36.3037142,20.7806522 36.1604433,20.7553691 36.0201511,20.7178841 L36.0957179,20.7178841 L36.1964736,20.7934509 Z" id="路径" fill="#1C44CB"></path>
                            <path d="M35.0125945,15.9319899 C34.8503178,16.0136113 34.7016281,16.1198182 34.5717884,16.2468514 C34.7016281,16.1198182 34.8503178,16.0136113 35.0125945,15.9319899 L35.0125945,15.9319899 Z" id="路径" fill="#1C44CB"></path>
                            <path d="M34.4080605,19.3702771 C34.4333442,19.4437507 34.4717496,19.512027 34.5214106,19.5717884 C34.4717496,19.512027 34.4333442,19.4437507 34.4080605,19.3702771 L34.4080605,19.3702771 Z" id="路径" fill="#1C44CB"></path>
                            <path d="M35.0755668,20.2141058 L35.1889169,20.3148615 L35.1889169,20.3148615 C35.071049,20.2239781 34.9614683,20.1228267 34.861461,20.0125945 L34.861461,20.0755668 L35.0755668,20.2141058 Z" id="路径" fill="#1C44CB"></path>
                            <path d="M34.3576826,16.5491184 L34.2821159,16.675063 L34.2191436,16.7884131 C34.3062534,16.6187056 34.4164527,16.4618834 34.5465995,16.3224181 L34.4710327,16.3853904 L34.3576826,16.5491184 Z" id="路径" fill="#1C44CB"></path>
                            <path d="M34.8488665,19.9874055 C34.7905474,19.923365 34.7358847,19.8560878 34.6851385,19.7858942 C34.7186627,19.8248225 34.7481976,19.8670152 34.7732997,19.9118388 L34.8488665,19.9874055 Z" id="路径" fill="#1C44CB"></path>
                            <path d="M34.1687657,16.9269521 C34.1664862,16.9604987 34.1664862,16.9941613 34.1687657,17.0277078 C34.1746644,17.065261 34.1746644,17.1035048 34.1687657,17.1410579 C34.1628671,17.1786111 34.1628671,17.2168549 34.1687657,17.2544081 C34.1631288,17.2877568 34.1631288,17.321815 34.1687657,17.3551637 C34.1687657,17.3551637 34.1687657,17.418136 34.1687657,17.4433249 C34.2032265,17.2177864 34.266726,16.9976548 34.3576826,16.7884131 L34.3576826,16.7884131 C34.2816227,16.8134108 34.2154694,16.8619232 34.1687657,16.9269521 L34.1687657,16.9269521 Z" id="路径" fill="#1C44CB"></path>
                            <path d="M34.0176322,17.5692695 C34.0115202,17.6068057 34.0115202,17.6450835 34.0176322,17.6826196 L34.0176322,18.0352645 C34.0238397,18.0770165 34.0238397,18.119457 34.0176322,18.1612091 L34.0176322,18.1612091 C33.9796339,17.9107529 33.9796339,17.6559977 34.0176322,17.4055416 L34.0176322,17.4055416 C34.0031942,17.4591627 34.0031942,17.5156484 34.0176322,17.5692695 L34.0176322,17.5692695 Z" id="路径" fill="#1C44CB"></path>
                            <path d="M34.231738,18.9924433 L34.231738,19.0806045 C34.1780102,18.9661633 34.1317341,18.8483695 34.093199,18.7279597 C34.093199,18.7279597 34.093199,18.7279597 34.093199,18.7279597 C34.1267975,18.8221595 34.1734306,18.9111863 34.231738,18.9924433 L34.231738,18.9924433 Z" id="路径" fill="#1C44CB"></path>
                            <path d="M34.0680101,18.4382872 C34.062178,18.4927073 34.062178,18.5475949 34.0680101,18.6020151 C34.0625499,18.6311486 34.0625499,18.6610429 34.0680101,18.6901763 C34.016366,18.5306776 33.9825741,18.3659423 33.9672544,18.1989924 C33.9610967,18.2322954 33.9610967,18.2664451 33.9672544,18.2997481 C33.9917315,18.3519105 34.0259269,18.3989292 34.0680101,18.4382872 L34.0680101,18.4382872 Z" id="路径" fill="#1C44CB"></path>
                            <path d="M32.9471033,20 L32.8211587,19.7355164 L32.9471033,20 Z" id="路径" fill="#1C44CB"></path>
                            <polygon id="路径" fill="#1C44CB" points="36.6498741 20.8312343 36.8387909 20.8312343 36.4483627 20.8312343"></polygon>
                            <path d="M33.2367758,20.440806 C33.1710267,20.3664238 33.1120203,20.2863437 33.0604534,20.2015113 C33.1120203,20.2863437 33.1710267,20.3664238 33.2367758,20.440806 Z" id="路径" fill="#1C44CB"></path>
                            <path d="M37.0906801,20.7304786 L37.2040302,20.7304786 C37.0956139,20.778898 36.9812738,20.8127766 36.8639798,20.8312343 L36.8639798,20.8312343 L37.0906801,20.7304786 Z" id="路径" fill="#1C44CB"></path>
                            <path d="M34.5465995,16.3224181 C34.5685341,16.2941725 34.5939207,16.268786 34.6221662,16.2468514 C34.7520059,16.1198182 34.9006956,16.0136113 35.0629723,15.9319899 L33.6146096,16.5869018 C33.4510147,16.6609022 33.3017846,16.7632314 33.1738035,16.8891688 L33.0982368,16.9647355 L33.0982368,17.0277078 L34.5088161,16.3853904 L34.5465995,16.3224181 Z" id="路径" fill="#1C44CB"></path>
                            <polygon id="路径" fill="#1C44CB" points="34.4710327 16.3853904 33.0604534 17.0277078 32.9471033 17.1788413 34.3576826 16.5491184"></polygon>
                            <polygon id="路径" fill="#1C44CB" points="34.3576826 16.5491184 32.9471033 17.1788413 32.8589421 17.3173804 34.2821159 16.675063"></polygon>
                            <path d="M34.2191436,16.8513854 L34.2191436,16.8513854 L34.2821159,16.7380353 L32.8589421,17.3803526 C32.8589421,17.3803526 32.7959698,17.4559194 32.7707809,17.5062972 L32.7707809,17.5062972 L34.2191436,16.8513854 L34.2191436,16.8513854 Z" id="路径" fill="#1C44CB"></path>
                            <path d="M34.2191436,16.8513854 L32.7707809,17.5062972 C32.765441,17.5438919 32.765441,17.5820526 32.7707809,17.6196474 L34.2065491,16.97733 C34.2036356,16.9349389 34.2078934,16.8923601 34.2191436,16.8513854 Z" id="路径" fill="#1C44CB"></path>
                            <path d="M34.1687657,16.9269521 L32.7329975,17.5692695 L32.7329975,17.6700252 L34.1561713,17.0277078 C34.1580672,16.9938747 34.1622751,16.9602109 34.1687657,16.9269521 L34.1687657,16.9269521 Z" id="路径" fill="#1C44CB"></path>
                            <path d="M34.1183879,17.0277078 L32.6952141,17.6700252 C32.7011128,17.7075783 32.7011128,17.7458222 32.6952141,17.7833753 L34.1183879,17.1410579 C34.1242866,17.1035048 34.1242866,17.065261 34.1183879,17.0277078 Z" id="路径" fill="#1C44CB"></path>
                            <path d="M34.093199,17.1410579 L32.6700252,17.7833753 L32.6700252,17.8967254 L34.1057935,17.2544081 C34.0956858,17.2175173 34.0914358,17.1792677 34.093199,17.1410579 L34.093199,17.1410579 Z" id="路径" fill="#1C44CB"></path>
                            <path d="M34.0680101,17.2544081 L32.6322418,17.8967254 C32.6322418,17.8967254 32.6322418,17.9596977 32.6322418,18.0100756 L34.0680101,17.3551637 C34.0623731,17.321815 34.0623731,17.2877568 34.0680101,17.2544081 Z" id="路径" fill="#1C44CB"></path>
                            <path d="M34.0302267,17.4433249 L34.0302267,17.4433249 C34.0302267,17.4433249 34.0302267,17.4433249 34.0302267,17.3551637 L32.5944584,18.0100756 C32.5869931,18.0389885 32.5869931,18.0693238 32.5944584,18.0982368 L32.5944584,18.0982368 L32.5944584,18.0982368 L34.0428212,17.4433249 L34.0302267,17.4433249 Z" id="路径" fill="#1C44CB"></path>
                            <path d="M34.0302267,17.4685139 L32.581864,18.1234257 C32.581864,18.1234257 32.581864,18.1234257 32.581864,18.2241814 L34.0176322,17.5692695 C34.0163516,17.5352241 34.0206051,17.5011965 34.0302267,17.4685139 L34.0302267,17.4685139 Z" id="路径" fill="#1C44CB"></path>
                            <path d="M34.0176322,17.5692695 L32.581864,18.2241814 C32.581864,18.2241814 32.581864,18.2871537 32.581864,18.324937 L34.0176322,17.6826196 C34.0115202,17.6450835 34.0115202,17.6068057 34.0176322,17.5692695 L34.0176322,17.5692695 Z" id="路径" fill="#1C44CB"></path>
                            <path d="M34.0050378,17.6826196 L32.5692695,18.324937 C32.5756111,18.3624543 32.5756111,18.4007699 32.5692695,18.4382872 L34.0050378,17.7959698 L34.0050378,17.6826196 Z" id="路径" fill="#1C44CB"></path>
                            <polygon id="路径" fill="#1C44CB" points="34.0050378 17.7959698 32.5692695 18.4382872 32.5692695 18.5516373 34.0050378 17.9093199"></polygon>
                            <polygon id="路径" fill="#1C44CB" points="34.0050378 17.9093199 32.5692695 18.5516373 32.5692695 18.6775819 34.0050378 18.0352645"></polygon>
                            <path d="M34.0050378,18.0352645 L32.5692695,18.6775819 C32.5754925,18.7235519 32.5754925,18.7701509 32.5692695,18.8161209 L34.0176322,18.1612091 C34.0196961,18.1188354 34.0154516,18.0763903 34.0050378,18.0352645 L34.0050378,18.0352645 Z" id="路径" fill="#1C44CB"></path>
                            <path d="M34.0302267,18.1989924 L34.0302267,18.1989924 L32.581864,18.8539043 L32.581864,18.8539043 C32.581864,18.8539043 32.581864,18.9168766 32.581864,18.9546599 L34.0302267,18.2997481 C34.024069,18.2664451 34.024069,18.2322954 34.0302267,18.1989924 Z" id="路径" fill="#1C44CB"></path>
                            <path d="M34.0428212,18.2997481 L32.5944584,18.9546599 C32.5895603,19.0007097 32.5895603,19.0471492 32.5944584,19.093199 L34.0428212,18.4382872 C34.0357243,18.3923801 34.0357243,18.3456551 34.0428212,18.2997481 Z" id="路径" fill="#1C44CB"></path>
                            <path d="M34.0680101,18.4382872 L32.6196474,19.093199 L32.6196474,19.2443325 L34.0680101,18.6020151 C34.062178,18.5475949 34.062178,18.4927073 34.0680101,18.4382872 Z" id="路径" fill="#1C44CB"></path>
                            <path d="M34.1309824,18.7279597 L34.1309824,18.7279597 C34.1255222,18.6988263 34.1255222,18.6689319 34.1309824,18.6397985 L32.6826196,19.2821159 C32.6826196,19.2821159 32.6826196,19.3450882 32.6826196,19.3828715 L32.6826196,19.3828715 L32.6826196,19.4458438 L34.1309824,18.790932 C34.1309824,18.790932 34.1435768,18.7405542 34.1309824,18.7279597 Z" id="路径" fill="#1C44CB"></path>
                            <path d="M34.1561713,18.7783375 L32.7078086,19.4332494 L32.7833753,19.6473552 L34.231738,18.9924433 C34.1990306,18.9239552 34.1736993,18.8521831 34.1561713,18.7783375 L34.1561713,18.7783375 Z" id="路径" fill="#1C44CB"></path>
                            <path d="M34.6851385,19.7858942 C34.6234306,19.7112506 34.5686295,19.6311567 34.5214106,19.5465995 C34.4717496,19.4868381 34.4333442,19.4185618 34.4080605,19.3450882 C34.3544333,19.261033 34.3080851,19.1725501 34.2695214,19.0806045 L34.2695214,18.9924433 L32.8211587,19.6473552 L32.8211587,19.7355164 L32.9471033,20 L33.0604534,20.2015113 C33.1120203,20.2863437 33.1710267,20.3664238 33.2367758,20.440806 L33.3375315,20.5667506 L34.7732997,19.9118388 C34.7481976,19.8670152 34.7186627,19.8248225 34.6851385,19.7858942 L34.6851385,19.7858942 Z" id="路径" fill="#1C44CB"></path>
                            <polygon id="路径" fill="#1C44CB" points="34.8866499 20.0251889 34.8866499 20.0251889 34.8110831 19.9496222 33.3753149 20.604534 33.3753149 20.6801008 33.3753149 20.6801008 33.4382872 20.743073 34.8866499 20.0881612"></polygon>
                            <path d="M34.9370277,20.0881612 L33.488665,20.743073 C33.5406383,20.7782028 33.5872946,20.8206176 33.627204,20.8690176 L35.0755668,20.2141058 L34.9370277,20.0881612 Z" id="路径" fill="#1C44CB"></path>
                            <polygon id="路径" fill="#1C44CB" points="35.0755668 20.2141058 33.627204 20.8690176 33.7405542 20.9697733 35.1889169 20.3148615"></polygon>
                            <polygon id="路径" fill="#1C44CB" points="35.2267003 20.3400504 35.2267003 20.3400504 33.7783375 20.9949622 33.7783375 20.9949622 33.8664987 20.9949622 35.3148615 20.3526448"></polygon>
                            <polygon id="路径" fill="#1C44CB" points="35.302267 20.4030227 33.8539043 21.0453401 33.9672544 21.1209068 35.4030227 20.465995"></polygon>
                            <polygon id="路径" fill="#1C44CB" points="35.4030227 20.465995 33.9672544 21.1209068 34.0680101 21.1838791 35.5037783 20.5289673"></polygon>
                            <polygon id="路径" fill="#1C44CB" points="35.604534 20.6297229 35.604534 20.6297229 35.5037783 20.6297229 34.0680101 21.2846348 34.1435768 21.2846348 34.1435768 21.2846348 35.5919395 20.6297229"></polygon>
                            <polygon id="路径" fill="#1C44CB" points="35.604534 20.6297229 34.1561713 21.2846348 34.2695214 21.2846348 35.7052897 20.6297229"></polygon>
                            <polygon id="路径" fill="#1C44CB" points="35.7052897 20.6297229 34.2695214 21.2846348 34.3702771 21.2846348 35.8060453 20.6423174"></polygon>
                            <polygon id="路径" fill="#1C44CB" points="35.8060453 20.6297229 34.3702771 21.2720403 34.4584383 21.2720403 35.906801 20.6297229"></polygon>
                            <polygon id="路径" fill="#1C44CB" points="35.906801 20.7178841 34.4584383 21.3602015 34.5465995 21.3602015 35.9949622 20.7052897"></polygon>
                            <polygon id="路径" fill="#1C44CB" points="36.0201511 20.7556675 36.0201511 20.7556675 34.5717884 21.4105793 34.6851385 21.4105793 36.1209068 20.7556675"></polygon>
                            <polygon id="路径" fill="#1C44CB" points="36.0957179 20.768262 34.6599496 21.4231738 34.7607053 21.4231738 36.1964736 20.7808564"></polygon>
                            <polygon id="路径" fill="#1C44CB" points="36.1964736 20.7934509 34.7607053 21.4357683 34.8740554 21.4357683 36.2972292 20.7808564"></polygon>
                            <polygon id="路径" fill="#1C44CB" points="36.2720403 20.8060453 34.8488665 21.4609572 35.0125945 21.4609572 36.4609572 20.8060453"></polygon>
                            <polygon id="路径" fill="#1C44CB" points="36.4105793 20.8186398 34.9622166 21.4735516 34.9622166 21.4735516 36.4105793 20.8312343"></polygon>
                            <polygon id="路径" fill="#1C44CB" points="36.4483627 20.8312343 35 21.4735516 35.0881612 21.4735516 36.5239295 20.8312343"></polygon>
                            <polygon id="路径" fill="#1C44CB" points="36.5239295 20.8312343 35.0881612 21.4735516 35.2267003 21.4735516 36.6498741 20.8438287"></polygon>
                            <polygon id="路径" fill="#1C44CB" points="36.6498741 20.8312343 35.2267003 21.4609572 35.3400504 21.4609572 36.7758186 20.8186398"></polygon>
                            <polygon id="路径" fill="#1C44CB" points="36.8639798 20.7934509 36.7758186 20.7934509 35.3400504 21.4357683 35.4156171 21.4357683 35.5163728 21.4357683 36.9143577 20.8060453"></polygon>
                            <path d="M36.9143577,20.7808564 L35.5163728,21.4105793 C35.5870239,21.4030114 35.6554952,21.3816142 35.7178841,21.3476071 L37.0906801,20.7304786 L36.9143577,20.7808564 Z" id="路径" fill="#1C44CB"></path>
                            <polygon id="路径" fill="#1C44CB" points="37.0906801 20.7304786 35.7178841 21.3476071 35.7178841 21.3476071 37.1662469 20.7052897"></polygon>
                            <path d="M36.511335,15.6675063 L36.3098237,15.4911839 L36.3098237,15.4911839 C36.5107577,15.6496375 36.7001535,15.8221982 36.8765743,16.0075567 L36.7758186,15.8942065 L36.511335,15.6675063 Z" id="路径" fill="#1C44CB"></path>
                            <path d="M39.1309824,16.511335 C39.2065491,16.6624685 39.2821159,16.813602 39.3450882,16.9647355 C39.2821159,16.8513854 39.2065491,16.6624685 39.1309824,16.511335 Z" id="路径" fill="#1C44CB"></path>
                            <path d="M35.9319899,15.2267003 L35.7556675,15.1133501 L35.6171285,15.0377834 C35.845681,15.1641957 36.0645809,15.3073225 36.2720403,15.465995 L36.1209068,15.3526448 L35.9319899,15.2267003 Z" id="路径" fill="#1C44CB"></path>
                            <path d="M35.4282116,14.9496222 L35.2518892,14.8740554 L35.0881612,14.8110831 L34.9244332,14.8110831 L34.9244332,14.8110831 C35.1686958,14.883612 35.4049952,14.9806635 35.6297229,15.1007557 L35.6297229,15.1007557 L35.4282116,14.9496222 Z" id="路径" fill="#1C44CB"></path>
                            <path d="M34.5843829,14.6725441 L34.4080605,14.6725441 L34.2191436,14.6725441 L34.1561713,14.6725441 C34.4039799,14.6837478 34.6493971,14.7260611 34.8866499,14.7984887 L34.7607053,14.7984887 L34.5843829,14.6725441 Z" id="路径" fill="#1C44CB"></path>
                            <path d="M39.1813602,21.3979849 L39.1813602,21.4609572 L39.1813602,21.3979849 Z" id="路径" fill="#1C44CB"></path>
                            <path d="M37.6700252,17.1662469 L37.5314861,16.8513854 L37.6700252,17.1662469 Z" id="路径" fill="#1C44CB"></path>
                            <path d="M33.0352645,14.7732997 L32.8337531,14.861461 C33.0261104,14.7722567 33.2293647,14.7087397 33.4382872,14.6725441 L33.3375315,14.6725441 L33.0352645,14.7732997 Z" id="路径" fill="#1C44CB"></path>
                            <path d="M37.0403023,22.7833753 L37.1788413,22.6574307 L37.0403023,22.7833753 Z" id="路径" fill="#1C44CB"></path>
                            <path d="M38.488665,22.1284635 C38.3281722,22.2411196 38.1598152,22.3421338 37.9848866,22.4307305 C38.1598152,22.3421338 38.3281722,22.2411196 38.488665,22.1284635 L38.488665,22.1284635 Z" id="路径" fill="#1C44CB"></path>
                            <path d="M33.8161209,14.6221662 L33.6020151,14.6221662 L33.488665,14.6221662 C33.7104172,14.5963314 33.9344191,14.5963314 34.1561713,14.6221662 L34.0302267,14.6221662 C33.9589875,14.6160889 33.8873601,14.6160889 33.8161209,14.6221662 Z" id="路径" fill="#1C44CB"></path>
                            <path d="M38.6397985,15.7556675 L38.929471,16.1712846 L38.6397985,15.7556675 Z" id="路径" fill="#1C44CB"></path>
                            <path d="M38.2997481,15.3400504 L38.3627204,15.4156171 L38.2997481,15.3400504 Z" id="路径" fill="#1C44CB"></path>
                            <path d="M38.3501259,19.4332494 C38.3501259,19.3702771 38.3501259,19.2947103 38.3501259,19.2191436 L38.3501259,19.1561713 C38.3622893,19.3743058 38.3622893,19.5929486 38.3501259,19.8110831 L38.3501259,19.6473552 C38.3562033,19.5761159 38.3562033,19.5044886 38.3501259,19.4332494 L38.3501259,19.4332494 Z" id="路径" fill="#1C44CB"></path>
                            <path d="M38.3501259,20.2392947 C38.3501259,20.1763224 38.3501259,20.1133501 38.3501259,20.0503778 L38.3501259,19.8488665 L38.3501259,19.8488665 C38.3630283,20.0543737 38.3630283,20.2604878 38.3501259,20.465995 L38.3501259,20.465995 C38.3375315,20.3652393 38.3375315,20.302267 38.3501259,20.2392947 Z" id="路径" fill="#1C44CB"></path>
                            <path d="M37.9722922,17.7707809 L37.8967254,17.6196474 C37.9874505,17.8252248 38.0673252,18.0354214 38.1360202,18.2493703 C38.1360202,18.2493703 38.1360202,18.186398 38.1360202,18.1612091 C38.0892286,18.0279371 38.0345561,17.8975644 37.9722922,17.7707809 L37.9722922,17.7707809 Z" id="路径" fill="#1C44CB"></path>
                            <path d="M37.6826196,22.115869 C37.6181386,22.2054513 37.5465379,22.2896874 37.4685139,22.3677582 L37.5440806,22.3047859 L37.6826196,22.115869 Z" id="路径" fill="#1C44CB"></path>
                            <path d="M38.2619647,20.7934509 L38.2619647,20.6171285 C38.2619647,20.6171285 38.2619647,20.5163728 38.2619647,20.465995 C38.2375535,20.6614876 38.1996802,20.8550625 38.1486146,21.0453401 L38.1486146,21.0453401 C38.2241814,20.9193955 38.2493703,20.8564232 38.2619647,20.7934509 Z" id="路径" fill="#1C44CB"></path>
                            <path d="M38.0856423,21.372796 C38.1140973,21.3081897 38.1352199,21.2405972 38.1486146,21.1712846 L38.1486146,21.070529 C38.0988908,21.2472152 38.0357346,21.4198423 37.9596977,21.5869018 L37.9596977,21.5869018 L38.0856423,21.372796 Z" id="路径" fill="#1C44CB"></path>
                            <path d="M37.884131,21.7884131 C37.9225832,21.7281599 37.9562708,21.6649955 37.9848866,21.5994962 C37.9111666,21.7560973 37.8270142,21.9075715 37.7329975,22.0528967 L37.7329975,22.0528967 L37.884131,21.7884131 Z" id="路径" fill="#1C44CB"></path>
                            <path d="M38.2619647,18.7279597 C38.2619647,18.6397985 38.2619647,18.5516373 38.1989924,18.4634761 L38.1989924,18.2997481 C38.2770761,18.5809043 38.3359856,18.8670363 38.3753149,19.1561713 C38.3813813,19.0975537 38.3813813,19.0384665 38.3753149,18.9798489 L38.2619647,18.7279597 Z" id="路径" fill="#1C44CB"></path>
                            <path d="M38.929471,21.7128463 C38.8351229,21.8158753 38.7341527,21.9126383 38.627204,22.0025189 C38.7341527,21.9126383 38.8351229,21.8158753 38.929471,21.7128463 L38.929471,21.7128463 Z" id="路径" fill="#1C44CB"></path>
                            <path d="M36.9143577,16.070529 C37.0094153,16.1783428 37.0977436,16.2919078 37.1788413,16.4105793 L37.0277078,16.1838791 L36.9143577,16.070529 Z" id="路径" fill="#1C44CB"></path>
                            <polygon id="路径" fill="#1C44CB" points="34.3576826 14.1813602 34.2947103 14.1813602 32.8337531 14.836272 33.0352645 14.7481108"></polygon>
                            <polygon id="路径" fill="#1C44CB" points="33.3375315 14.6851385 34.7103275 14.0806045 34.3576826 14.1813602 33.0352645 14.7732997"></polygon>
                            <polygon id="路径" fill="#1C44CB" points="35.0125945 14.0050378 34.8866499 14.0050378 34.7103275 14.0680101 33.3375315 14.6725441 33.6020151 14.6725441"></polygon>
                            <polygon id="路径" fill="#1C44CB" points="33.8161209 14.6221662 35.2141058 13.9924433 35.0125945 13.9924433 33.6020151 14.6347607"></polygon>
                            <path d="M34.0302267,14.6221662 L35.440806,13.9798489 L35.2141058,13.9798489 L33.8161209,14.6095718 C33.8877178,14.6076744 33.959346,14.6118879 34.0302267,14.6221662 L34.0302267,14.6221662 Z" id="路径" fill="#1C44CB"></path>
                            <polygon id="路径" fill="#1C44CB" points="35.440806 13.9798489 34.0302267 14.6221662 34.1561713 14.6221662 35.604534 13.9672544"></polygon>
                            <polygon id="路径" fill="#1C44CB" points="35.6549118 13.9798489 35.6549118 13.9798489 34.2065491 14.6347607 34.2695214 14.6347607"></polygon>
                            <polygon id="路径" fill="#1C44CB" points="34.4080605 14.6473552 35.8312343 14.0050378 35.6549118 14.0050378 34.2191436 14.6473552"></polygon>
                            <polygon id="路径" fill="#1C44CB" points="34.5843829 14.6725441 35.9949622 14.0302267 35.8312343 14.0302267 34.4080605 14.6725441"></polygon>
                            <polygon id="路径" fill="#1C44CB" points="34.7607053 14.7103275 36.1838791 14.0680101 35.9949622 14.0680101 34.5843829 14.7103275"></polygon>
                            <polygon id="路径" fill="#1C44CB" points="36.372796 14.1057935 36.372796 14.1057935 36.2216625 14.1057935 34.7984887 14.7481108 34.9244332 14.7481108 34.9244332 14.7481108"></polygon>
                            <polygon id="路径" fill="#1C44CB" points="35.0881612 14.8110831 36.5239295 14.1687657 36.372796 14.1057935 34.9244332 14.7607053"></polygon>
                            <polygon id="路径" fill="#1C44CB" points="35.2518892 14.8740554 36.6876574 14.231738 36.5239295 14.1687657 35.0881612 14.8110831"></polygon>
                            <polygon id="路径" fill="#1C44CB" points="35.4282116 14.9496222 36.8513854 14.2947103 36.6876574 14.2947103 35.2518892 14.9370277"></polygon>
                            <path d="M35.5919395,15.0251889 L37.0403023,14.3702771 C36.9752781,14.3505563 36.9120724,14.325274 36.8513854,14.2947103 L35.4282116,14.9496222 L35.5919395,15.0251889 Z" id="路径" fill="#1C44CB"></path>
                            <polygon id="路径" fill="#1C44CB" points="37.2040302 14.4710327 37.0654912 14.3828715 37.0654912 14.3828715 35.6171285 15.0377834 35.6171285 15.0377834 35.7556675 15.1133501"></polygon>
                            <polygon id="路径" fill="#1C44CB" points="35.9319899 15.2267003 37.3677582 14.5843829 37.2040302 14.4710327 35.7556675 15.1133501"></polygon>
                            <polygon id="路径" fill="#1C44CB" points="36.1209068 15.3526448 37.5566751 14.697733 37.3677582 14.5843829 35.9319899 15.2267003"></polygon>
                            <polygon id="路径" fill="#1C44CB" points="37.7581864 14.8488665 37.7581864 14.8488665 37.7581864 14.8488665 37.5944584 14.7355164 36.1586902 15.3904282 36.3098237 15.5037783 36.3098237 15.5037783"></polygon>
                            <polygon id="路径" fill="#1C44CB" points="36.511335 15.6675063 37.9471033 15.0251889 37.7581864 14.8488665 36.3098237 15.4911839"></polygon>
                            <path d="M36.7506297,15.8816121 L38.186398,15.2392947 C38.112688,15.1614348 38.0326489,15.0898208 37.9471033,15.0251889 L36.511335,15.6675063 L36.7506297,15.8816121 Z" id="路径" fill="#1C44CB"></path>
                            <polygon id="路径" fill="#1C44CB" points="38.4634761 15.5919395 38.3627204 15.465995 38.2997481 15.3904282 38.186398 15.2896725 36.7506297 15.9319899 36.8513854 16.0453401 36.9143577 16.1209068 37.0277078 16.2342569"></polygon>
                            <path d="M39.4080605,17.1284635 C39.3904869,17.0726339 39.3694554,17.0179522 39.3450882,16.9647355 C39.2821159,16.813602 39.2065491,16.6624685 39.1309824,16.511335 C39.0554156,16.3602015 39.0050378,16.2846348 38.929471,16.1712846 L38.6397985,15.7556675 L38.4634761,15.5415617 L37.0277078,16.1838791 L37.1788413,16.4105793 C37.3092495,16.5467484 37.4272644,16.6942671 37.5314861,16.8513854 L37.720403,17.1914358 C37.8060343,17.337324 37.8817715,17.4887983 37.9471033,17.6448363 L38.02267,17.7959698 L39.4080605,17.1284635 Z" id="路径" fill="#1C44CB"></path>
                            <path d="M38.1108312,18.1108312 L39.559194,17.4559194 L39.4080605,17.0780856 L37.9722922,17.720403 C38.0260026,17.8477496 38.0722604,17.9781125 38.1108312,18.1108312 L38.1108312,18.1108312 Z" id="路径" fill="#1C44CB"></path>
                            <path d="M39.6347607,17.8211587 C39.6406529,17.7625322 39.6406529,17.7034627 39.6347607,17.6448363 L39.6347607,17.6448363 C39.6347607,17.6448363 39.6347607,17.581864 39.6347607,17.5566751 L38.186398,18.2115869 C38.186398,18.2115869 38.186398,18.2745592 38.186398,18.2997481 L38.186398,18.2997481 L38.186398,18.4634761 L39.6347607,17.8211587 Z" id="路径" fill="#1C44CB"></path>
                            <path d="M38.2619647,18.7279597 L39.697733,18.0856423 C39.697733,17.9974811 39.697733,17.9093199 39.6347607,17.8211587 L38.1989924,18.4634761 C38.2241814,18.5516373 38.2367758,18.6397985 38.2619647,18.7279597 Z" id="路径" fill="#1C44CB"></path>
                            <path d="M38.2997481,18.9798489 L39.7481108,18.3375315 C39.7481108,18.2493703 39.7481108,18.1738035 39.7481108,18.0856423 L38.3123426,18.7279597 L38.2997481,18.9798489 Z" id="路径" fill="#1C44CB"></path>
                            <path d="M39.7858942,18.5642317 C39.791842,18.5436623 39.791842,18.5218289 39.7858942,18.5012594 C39.7858942,18.5012594 39.7858942,18.3879093 39.7858942,18.3375315 L38.3375315,18.9798489 C38.3435979,19.0384665 38.3435979,19.0975537 38.3375315,19.1561713 L38.3375315,19.2191436 L39.7858942,18.5642317 Z" id="路径" fill="#1C44CB"></path>
                            <path d="M38.3501259,19.4332494 L39.7984887,18.790932 C39.7922385,18.7154945 39.7922385,18.6396693 39.7984887,18.5642317 L38.3501259,19.2191436 C38.3375315,19.2947103 38.3501259,19.3702771 38.3501259,19.4332494 Z" id="路径" fill="#1C44CB"></path>
                            <path d="M38.3627204,19.6473552 L39.8110831,19.0050378 C39.8110831,18.929471 39.8110831,18.8539043 39.8110831,18.790932 L38.3627204,19.4332494 C38.3687977,19.5044886 38.3687977,19.5761159 38.3627204,19.6473552 Z" id="路径" fill="#1C44CB"></path>
                            <path d="M39.8110831,19.1939547 L39.8110831,19.1939547 C39.8110831,19.1309824 39.8110831,19.0806045 39.8110831,19.0302267 L38.3627204,19.6725441 L38.3627204,19.861461 L38.3627204,19.861461 L39.8110831,19.1939547 Z" id="路径" fill="#1C44CB"></path>
                            <path d="M38.3627204,20.0503778 L39.7984887,19.3702771 C39.805139,19.3032712 39.805139,19.2357716 39.7984887,19.1687657 L38.3501259,19.8236776 L38.3627204,20.0503778 Z" id="路径" fill="#1C44CB"></path>
                            <path d="M38.3501259,20.2392947 L39.7858942,19.5843829 C39.7921238,19.5215646 39.7921238,19.4582842 39.7858942,19.395466 L38.3501259,20.0503778 C38.3627204,20.1133501 38.3501259,20.1763224 38.3501259,20.2392947 Z" id="路径" fill="#1C44CB"></path>
                            <path d="M38.324937,20.4282116 L39.7732997,19.7732997 C39.7795293,19.7104815 39.7795293,19.6472011 39.7732997,19.5843829 L38.3375315,20.2392947 C38.3375315,20.2392947 38.3375315,20.3652393 38.324937,20.4282116 Z" id="路径" fill="#1C44CB"></path>
                            <path d="M39.7355164,19.9622166 L39.7355164,19.8236776 L39.7355164,19.8236776 L38.2871537,20.4785894 L38.2871537,20.4785894 L38.2871537,20.4785894 C38.2871537,20.4785894 38.2871537,20.5793451 38.2871537,20.6297229 L39.7355164,19.9622166 Z" id="路径" fill="#1C44CB"></path>
                            <polygon id="路径" fill="#1C44CB" points="38.2619647 20.7934509 39.697733 20.1511335 39.697733 19.9622166 38.2619647 20.6171285"></polygon>
                            <path d="M38.2115869,20.9823678 L39.6599496,20.3400504 L39.6599496,20.1511335 L38.2241814,20.7934509 C38.2493703,20.8564232 38.2241814,20.9193955 38.2115869,20.9823678 Z" id="路径" fill="#1C44CB"></path>
                            <path d="M39.5969773,20.5289673 L39.5969773,20.4156171 L39.5969773,20.4156171 C39.5969773,20.4156171 39.5969773,20.4156171 39.5969773,20.4156171 L38.1486146,21.0579345 L38.1486146,21.1460957 L38.1486146,21.2468514 L39.5969773,20.5289673 Z" id="路径" fill="#1C44CB"></path>
                            <path d="M38.0856423,21.372796 L39.5214106,20.7304786 L39.5969773,20.5289673 L38.1486146,21.1712846 C38.1352199,21.2405972 38.1140973,21.3081897 38.0856423,21.372796 L38.0856423,21.372796 Z" id="路径" fill="#1C44CB"></path>
                            <polygon id="路径" fill="#1C44CB" points="37.9974811 21.5743073 39.4458438 20.9193955 39.5214106 20.7304786 38.0856423 21.372796"></polygon>
                            <path d="M39.3198992,21.1460957 C39.3650175,21.0833231 39.4030333,21.0157394 39.4332494,20.9445844 L39.4332494,20.9445844 L37.9848866,21.5994962 L37.9848866,21.5994962 C37.9562708,21.6649955 37.9225832,21.7281599 37.884131,21.7884131 L39.3198992,21.1460957 Z" id="路径" fill="#1C44CB"></path>
                            <path d="M37.7455919,22.0277078 L39.1939547,21.372796 C39.2407011,21.2999764 39.2827676,21.2242568 39.3198992,21.1460957 L37.884131,21.7884131 L37.7455919,22.0277078 Z" id="路径" fill="#1C44CB"></path>
                            <polygon id="路径" fill="#1C44CB" points="38.9672544 21.6624685 39.1309824 21.4609572 39.1309824 21.3979849 39.1309824 21.3979849 37.6826196 22.0528967 37.6826196 22.0528967 37.6826196 22.115869 37.5440806 22.3047859"></polygon>
                            <path d="M38.9672544,21.6624685 L37.5440806,22.3047859 L37.4685139,22.3677582 L37.1788413,22.6574307 L37.0403023,22.7833753 C36.8798095,22.8960315 36.7114525,22.9970457 36.5365239,23.0856423 L37.9848866,22.4307305 C38.1598152,22.3421338 38.3281722,22.2411196 38.488665,22.1284635 L38.627204,22.0025189 C38.7341527,21.9126383 38.8351229,21.8158753 38.929471,21.7128463 L38.9672544,21.6624685 Z" id="路径" fill="#1C44CB"></path>
                            <path d="M34.1561713,14.6221662 C36.4154106,15.0091384 38.1286245,16.8724525 38.324937,19.1561713 C38.627204,21.5617128 37.2418136,23.4256927 35.2267003,23.3123426 C32.9625142,22.9305184 31.2429865,21.0659704 31.0453401,18.7783375 C30.743073,16.372796 32.1410579,14.5214106 34.1561713,14.6221662 Z M35,21.4735516 C36.1586902,21.4735516 36.9647355,20.465995 36.8010076,19.0680101 C36.6870543,17.7453582 35.692196,16.6675951 34.3828715,16.4483627 C33.1989924,16.3853904 32.4055416,17.4685139 32.5692695,18.8539043 C32.681433,20.1864024 33.6911275,21.2689615 35.0125945,21.4735516" id="形状" fill="url(#linearGradient-7)"></path>
                            <polygon id="路径" fill="#1C44CB" points="31.2468514 2.11586902 32.6952141 1.46095718 34.2821159 2.38035264 32.8337531 3.03526448"></polygon>
                            <polygon id="路径" fill="#1C44CB" points="32.8337531 3.03526448 34.2821159 2.38035264 29.0428212 21.1712846 27.581864 21.8261965"></polygon>
                            <polygon id="路径" fill="url(#linearGradient-8)" points="31.2468514 2.11586902 32.8337531 3.03526448 27.581864 21.8261965 25.9949622 20.906801"></polygon>
                        </g>
                    </g>
                    <g id="编组" opacity="0.600000024" mask="url(#mask-3)" fill-rule="nonzero">
                        <g transform="translate(19.940000, 11.020000)">
                            <polygon id="路径" fill="url(#linearGradient-9)" points="55 31.1267393 54.8502722 50.9240774 29.9954628 62.6028433 30.1451906 42.8055051"></polygon>
                            <polygon id="路径" fill="url(#linearGradient-10)" points="30.1451906 42.8055051 29.9954628 62.6028433 0 51.6893527 0.166364186 31.8920145"></polygon>
                            <polygon id="路径" fill="#9CBDFF" points="55 31.1267393 30.1451906 42.8055051 0.166364186 31.8920145 25.0045372 20.2132486"></polygon>
                            <polygon id="路径" fill="#AEC9FF" points="55 21.0284332 54.8502722 26.2855414 29.9954628 37.9643073 30.1451906 32.707199"></polygon>
                            <polygon id="路径" fill="#D7E5FF" points="30.1451906 32.707199 29.9954628 37.9643073 0 27.0508167 0.166364186 21.7937084"></polygon>
                            <polygon id="路径" fill="#9CBDFF" points="55 21.0284332 30.1451906 32.707199 0.166364186 21.7937084 25.0045372 10.1149425"></polygon>
                            <polygon id="路径" fill="#AEC9FF" points="55 10.930127 54.8502722 16.1872353 29.9954628 27.8660012 30.1451906 22.6088929"></polygon>
                            <polygon id="路径" fill="#D7E5FF" points="30.1451906 22.6088929 29.9954628 27.8660012 0 16.9525106 0.166364186 11.6954023"></polygon>
                            <polygon id="路径" fill="#F2F7FF" points="55 10.930127 30.1451906 22.6088929 0.166364186 11.6954023 25.0045372 0"></polygon>
                            <ellipse id="椭圆形" fill="#E8BB00" transform="translate(33.276416, 24.051031) rotate(-67.480000) translate(-33.276416, -24.051031) " cx="33.276416" cy="24.0510306" rx="1.58045977" ry="1.31427707"></ellipse>
                            <ellipse id="椭圆形" fill="#E8BB00" transform="translate(39.050834, 21.159624) rotate(-67.480000) translate(-39.050834, -21.159624) " cx="39.0508338" cy="21.1596236" rx="1.58045977" ry="1.31427707"></ellipse>
                            <ellipse id="椭圆形" fill="#E8BB00" transform="translate(36.169733, 32.698879) rotate(-67.480000) translate(-36.169733, -32.698879) " cx="36.1697327" cy="32.6988788" rx="1.58045977" ry="1.31427707"></ellipse>
                            <ellipse id="椭圆形" fill="#E8BB00" transform="translate(36.164971, 42.805247) rotate(-67.480000) translate(-36.164971, -42.805247) " cx="36.1649707" cy="42.8052466" rx="1.58045977" ry="1.31427707"></ellipse>
                        </g>
                    </g>
                    <g id="编组-19备份" mask="url(#mask-3)">
                        <g transform="translate(16.000000, 42.000000)">
                            <polygon id="路径" stroke="none" fill="url(#linearGradient-11)" fill-rule="nonzero" points="147 70 144.673504 187.817779 87 215 89.3264962 97.1991145"></polygon>
                            <polygon id="路径" stroke="none" fill="url(#linearGradient-12)" fill-rule="nonzero" points="89 97.4955927 86.6654628 271 0 239.521295 2.33453716 66"></polygon>
                            <polygon id="路径" stroke="none" fill="#F2F7FF" fill-rule="nonzero" points="147 70.6568797 89.3426966 98 3 66.326137 60.6741573 39"></polygon>
                            <path d="M37.019046,57.2521728 L47.9471314,51.2904015 L48.9390654,51 L49.9478117,51.1366595 L112.406023,74.4029419 C113.307105,74.7407468 113.928994,75.5846507 113.994328,76.5582737 C114.059662,77.5318967 113.556263,78.453757 112.708647,78.9127059 L105.428861,82.8929143 C103.126034,84.1544896 100.400066,84.3474382 97.9473257,83.4224699 L37.2544201,60.8224026 C36.5439553,60.5516282 36.0550578,59.8836233 36.0043426,59.1143598 C35.9536275,58.3450963 36.3504716,57.6168066 37.019046,57.2521728 L37.019046,57.2521728 Z" id="路径" stroke="none" fill="#82ABFF" fill-rule="nonzero"></path>
                            <path d="M108,78.08 C108.046002,77.9620847 108.086052,77.8419334 108.12,77.72 C108.12,77.72 108.12,77.5 108.22,77.38 C108.119234,77.8082135 107.971681,78.2240465 107.78,78.62 L107.78,78.62 L108,78.08 Z" id="路径" stroke="none" fill="#34375F" fill-rule="nonzero"></path>
                            <path d="M108.09,76.17 C108.080349,76.0568721 108.080349,75.9431279 108.09,75.83 C108.09,75.71 108.09,75.61 108.09,75.49 L108.09,75.29 C108.083118,75.7685631 108.022743,76.2448559 107.91,76.71 L107.91,76.51 L108.09,76.17 Z" id="路径" stroke="none" fill="#34375F" fill-rule="nonzero"></path>
                            <path d="M108.52,78.47 C108.88301,78.203839 109.206257,77.8873268 109.48,77.53 C109.206257,77.8873268 108.88301,78.203839 108.52,78.47 L108.52,78.47 Z" id="路径" stroke="none" fill="#34375F" fill-rule="nonzero"></path>
                            <path d="M108.11,77.88 L108.29,77.54 C108.132297,77.8677336 107.937704,78.1763977 107.71,78.46 C107.89,78.22 108.01,78.06 108.11,77.88 Z" id="路径" stroke="none" fill="#34375F" fill-rule="nonzero"></path>
                            <path d="M110,74.28 C109.99195,74.2069691 109.99195,74.1330309 110,74.06 L108,75.74 L108,75.94 L110,74.28 Z" id="路径" stroke="none" fill="#34375F" fill-rule="nonzero"></path>
                            <path d="M109.03466,76 L110.992967,74.36 C111.002344,74.240244 111.002344,74.119756 110.992967,74 L109,75.66 C109.05199,75.78 109.03466,75.88 109.03466,76 Z" id="路径" stroke="none" fill="#34375F" fill-rule="nonzero"></path>
                            <path d="M108.006329,76.99 L110,75.35 C110,75.23 110,75.13 110,75.01 L108.006329,76.65 C107.99789,76.7631279 107.99789,76.8768721 108.006329,76.99 Z" id="路径" stroke="none" fill="#34375F" fill-rule="nonzero"></path>
                            <path d="M108,76.99 L110,75.33 C110,75.33 110,75.11 110,75.01 L108.017391,76.65 L108,76.99 Z" id="路径" stroke="none" fill="#34375F" fill-rule="nonzero"></path>
                            <path d="M110,75.27 C110,75.27 110,75.27 110,75.27 L110,75.27 C110,75.27 110,75.13 110,75.07 L108,76.73 L108,76.93 L108,76.93 L110,75.27 Z" id="路径" stroke="none" fill="#34375F" fill-rule="nonzero"></path>
                            <path d="M108,77 L109.9,75.38 L110,75 L108.083333,76.66 C108.05,76.78 108.033333,76.9 108,77 Z" id="路径" stroke="none" fill="#34375F" fill-rule="nonzero"></path>
                            <path d="M108,77.99 L109.883333,76.37 C109.929387,76.2535236 109.968378,76.1332112 110,76.01 L108.1,77.63 C108.07171,77.7519334 108.038335,77.8720847 108,77.99 L108,77.99 Z" id="路径" stroke="none" fill="#34375F" fill-rule="nonzero"></path>
                            <path d="M108,78 L109.901639,76.3564356 C109.941738,76.2407525 109.974617,76.1216082 110,76 L108.147541,77.6039604 L108,78 Z" id="路径" stroke="none" fill="#34375F" fill-rule="nonzero"></path>
                            <path d="M109.808,76.4 C109.884263,76.2764846 109.948701,76.1422384 110,76 L110,76 L110,76 L108.144,77.66 L108.144,77.66 L108,78 L109.808,76.4 Z" id="路径" stroke="none" fill="#34375F" fill-rule="nonzero"></path>
                            <path d="M108,79 L109.751938,77.4528302 C109.843473,77.3093494 109.926376,77.1580126 110,77 L108.248062,78.5283019 C108.170543,78.6981132 108.077519,78.8490566 108,79 Z" id="路径" stroke="none" fill="#34375F" fill-rule="nonzero"></path>
                            <path d="M109.927273,77 L107.872727,78.28125 C107.628307,78.559316 107.333671,78.8019686 107,79 L109.127273,77.75 C109.457282,77.5420617 109.751142,77.2947865 110,77.015625 L109.927273,77 Z" id="路径" stroke="none" fill="#34375F" fill-rule="nonzero"></path>
                            <path d="M111.993794,32.3181515 L111.993794,31.9129082 C111.984867,31.8174354 111.984867,31.7213337 111.993794,31.6258609 C111.993794,31.5245501 111.993794,31.4232393 111.993794,31.3219285 C112.002069,31.2207878 112.002069,31.1191367 111.993794,31.017996 L111.993794,31.017996 L111.993794,31.017996 C111.993794,31.017996 111.993794,30.8660298 111.993794,30.7984892 C111.993794,30.7309487 111.993794,30.5789824 111.993794,30.4607865 C111.993794,30.3425905 111.993794,30.2412797 111.909656,30.1230838 L111.808689,29.7684959 L111.808689,29.7684959 L111.808689,29.7684959 C111.808689,29.6840702 111.808689,29.5827594 111.724551,29.4983337 C111.640413,29.413908 111.606757,29.2112864 111.556274,29.0593202 C111.505791,28.9073539 111.404825,28.7385026 111.320687,28.5696512 L111.320687,28.5696512 L111.320687,28.4683404 L111.068272,27.9786714 C110.984133,27.8267052 110.86634,27.6747389 110.782201,27.5227727 L110.546614,27.1681848 C110.311026,26.8473673 110.058611,26.5265497 109.806196,26.2395023 L109.722057,26.1213064 L109.722057,26.1213064 L109.200399,25.5978671 L108.796535,25.2432793 L108.796535,25.2432793 L108.796535,25.2432793 L108.560948,25.0575428 L108.224394,24.8042657 L107.904668,24.6016441 L107.669081,24.4496778 L107.669081,24.4496778 L107.669081,24.4496778 L107.366182,24.2977116 L107.09694,24.1626305 L106.810869,24.0275494 L106.541626,23.9093535 L106.44066,23.9093535 L42.4450007,0.0844256832 L42.2598962,0.0844256832 L41.9906534,0 L41.7214105,0 L41.4521677,0 L41.1660972,0 L41.1660972,0 L40.9305097,0 L39.9545043,0 L39.7020892,0 L39.3150526,0 L38.8943606,0.135081093 L38.8943606,0.135081093 C38.5585811,0.25977467 38.2414922,0.430223715 37.9520107,0.641635192 L36,2.04310153 C36.2972893,1.83455548 36.6195457,1.66436776 36.9591776,1.53654743 L36.9591776,1.53654743 C37.3008108,1.40862059 37.6568909,1.32355012 38.0193214,1.28327038 L38.0193214,1.28327038 C38.4221179,1.24159709 38.8281176,1.24159709 39.2309142,1.28327038 L39.2309142,1.28327038 C39.6717333,1.35808037 40.1052645,1.4710704 40.5266454,1.62097312 L103.899681,24.8549211 C104.334466,25.0070688 104.751896,25.2051758 105.144929,25.4459009 L105.144929,25.4459009 C105.543722,25.6695143 105.921135,25.9295185 106.272383,26.2226172 L106.272383,26.2226172 C106.637013,26.5124125 106.974928,26.8345277 107.282044,27.18507 L107.282044,27.2863808 C107.552694,27.5864197 107.805545,27.9021528 108.03929,28.2319485 L108.258049,28.5865363 C108.459195,28.8919592 108.644545,29.2075658 108.813363,29.532104 L108.813363,29.532104 C109.018803,29.9462522 109.193173,30.3751988 109.335021,30.8153744 L109.335021,30.8153744 C109.47522,31.256958 109.582097,31.7085037 109.654747,32.1661853 L109.654747,32.1661853 C109.696561,32.6211186 109.696561,33.078948 109.654747,33.5338814 L108.375843,76 L110.344682,74.5816485 L111.993794,32.3181515 Z" id="路径" stroke="none" fill="#1C46CD" fill-rule="nonzero"></path>
                            <path d="M103.956835,24.8585376 C107.558696,26.3351348 109.937134,29.8348831 110,33.7507428 L108.724221,76.2676554 C108.813592,77.8624694 108.053,79.3845607 106.727961,80.2625556 C105.402923,81.1405504 103.713913,81.2416105 102.294964,80.5277993 L39.0431655,57.1477237 C35.4471098,55.6638837 33.0716719,52.1685497 33,48.2555186 L34.2757794,5.73860596 C34.1905547,4.14460516 34.9508357,2.62458058 36.273422,1.74473291 C37.5960082,0.864885241 39.2826322,0.757111459 40.705036,1.4615567 L103.956835,24.8585376 Z" id="路径" stroke="none" fill="#96B9FF" fill-rule="nonzero"></path>
                            <path d="M101.440678,25.7868293 C104.748492,27.1469958 106.932262,30.3363692 107,33.906162 L105.830508,72.6759759 C105.912911,74.1340211 105.21076,75.5254539 103.987883,76.3274527 C102.765005,77.1294516 101.20663,77.220539 99.8983051,76.5664895 L41.559322,55.2024952 C38.2541635,53.8483524 36.0700234,50.6650838 36,47.1000778 L37.1694915,8.33026388 C37.0912849,6.87303927 37.7931217,5.48368415 39.0135176,4.67983277 C40.2339134,3.87598139 41.7898748,3.77816797 43.1016949,4.42283499 L101.440678,25.7868293 Z" id="路径" stroke="none" fill="#FFFFFF" fill-rule="nonzero"></path>
                            <polygon id="路径" stroke="none" fill="#387BFF" fill-rule="nonzero" points="63.8800857 31 40 22.4510949 40.1199143 19 64 27.5489051"></polygon>
                            <polygon id="路径" stroke="none" fill="#FAE568" fill-rule="nonzero" points="86.8719512 39 81 37.171521 81.1280488 34 87 35.8122977"></polygon>
                            <polygon id="路径" stroke="none" fill="#FAE568" fill-rule="nonzero" points="69.8814208 40 39 29.2901679 39.1185792 26 70 36.7098321"></polygon>
                            <polygon id="路径" stroke="none" fill="#AEC9FF" fill-rule="nonzero" points="70.8813559 26 40 15.302994 40.1016949 12 71 22.7137725"></polygon>
                            <path d="M92,65.5869115 L92.8301887,39.1318504 C92.8301887,38.2213512 93.6,37.7661016 94.490566,38.1201846 L94.490566,38.1201846 C95.3549893,38.4748964 95.9481379,39.3693731 96,40.3964327 L95.1698113,66.8514938 C95.1698113,67.7788541 94.4,68.2341037 93.509434,67.8800207 L93.509434,67.8800207 C92.642664,67.5192102 92.0498885,66.6186746 92,65.5869115 Z" id="路径" stroke="none" fill="#387BFF" fill-rule="nonzero"></path>
                            <path d="M97,63.565813 L97.6129032,45.1459562 C97.6129032,44.2241098 98.4354839,43.7631866 99.3870968,44.1216824 L99.3870968,44.1216824 C100.316141,44.4731941 100.953034,45.3832268 101,46.4262984 L100.403226,64.8461552 C100.403226,65.7680016 99.5645161,66.2289248 98.6129032,65.8875002 L98.6129032,65.8875002 C97.6893428,65.5185213 97.0574023,64.6088771 97,63.565813 L97,63.565813 Z" id="路径" stroke="none" fill="#AEC9FF" fill-rule="nonzero"></path>
                            <polygon id="路径" stroke="none" fill="#AEC9FF" fill-rule="nonzero" points="39 48.7517184 39.8844791 35 87 52.2482816 86.1155209 66"></polygon>
                            <ellipse id="椭圆形" stroke="none" fill="#7B8ACF" fill-rule="nonzero" transform="translate(51.885477, 42.427944) rotate(-45.860000) translate(-51.885477, -42.427944) " cx="51.8854768" cy="42.4279439" rx="1.46705245" ry="2.05724597"></ellipse>
                            <ellipse id="椭圆形" stroke="none" fill="#7B8ACF" fill-rule="nonzero" transform="translate(58.652347, 53.346566) rotate(-45.860000) translate(-58.652347, -53.346566) " cx="58.6523475" cy="53.3465661" rx="1.46705245" ry="2.05724597"></ellipse>
                            <ellipse id="椭圆形" stroke="none" fill="#7B8ACF" fill-rule="nonzero" transform="translate(69.764594, 50.723316) rotate(-45.860000) translate(-69.764594, -50.723316) " cx="69.764594" cy="50.7233157" rx="1.46705245" ry="2.05724597"></ellipse>
                            <ellipse id="椭圆形" stroke="none" fill="#7B8ACF" fill-rule="nonzero" transform="translate(78.414310, 60.656076) rotate(-45.860000) translate(-78.414310, -60.656076) " cx="78.4143099" cy="60.6560764" rx="1.46705245" ry="2.05724597"></ellipse>
                            <polyline id="路径" stroke="#7B8ACF" stroke-width="0.5" fill="none" points="52 43 58.8830261 53.7900093 70.1945327 51.1924144 79 61"></polyline>
                        </g>
                    </g>
                </g>
            </g>
        </g>
    </g>
</svg>